<svg id="Layer_2" data-name="Layer 2" xmlns="http://www.w3.org/2000/svg" xmlns:xlink="http://www.w3.org/1999/xlink" viewBox="0 0 48.65 48.87"><defs><style>.cls-1{fill:#231f20;opacity:0.85;}.cls-2{fill:url(#linear-gradient);}.cls-3{fill:#3d5b9a;}.cls-4{fill:#fff;}</style><linearGradient id="linear-gradient" x1="9.69" y1="37.78" x2="41.84" y2="7.98" gradientUnits="userSpaceOnUse"><stop offset="0" stop-color="#1c3461"/><stop offset="0.53" stop-color="#3d5b9a"/><stop offset="1" stop-color="#7392cb"/></linearGradient></defs><circle class="cls-1" cx="23.44" cy="26.67" r="22.76" transform="translate(-7.43 44.79) rotate(-80.44)"/><circle class="cls-2" cx="25.89" cy="22.76" r="22.76"/><circle class="cls-3" cx="25.89" cy="22.76" r="19.86"/><path class="cls-4" d="M20.25,24.76h3.22c.13,0,.17,0,.17.17V35.24H28s0,0,0-.05q0-5.14,0-10.27c0-.13,0-.16.17-.16h3.22c.13,0,.19,0,.2-.17L31.74,23,32,21.07c0-.15,0-.3.06-.47h-.19c-1.25,0-2.5,0-3.75,0-.11,0-.16,0-.16-.15,0-.95,0-1.9,0-2.86a2,2,0,0,1,.1-.58,1.3,1.3,0,0,1,1.11-1,6.76,6.76,0,0,1,1-.09q.93,0,1.86,0c.12,0,.16,0,.15-.15,0-1.15,0-2.29,0-3.43,0-.14-.06-.15-.18-.17a26.26,26.26,0,0,0-3.32-.13,5.3,5.3,0,0,0-3.05,1,4.69,4.69,0,0,0-1.82,2.83,7.38,7.38,0,0,0-.19,1.81v2.74c0,.14,0,.18-.18.18-1.07,0-2.13,0-3.2,0h-.18c0,.06,0,.11,0,.16,0,1.28,0,2.56,0,3.83C20.07,24.74,20.12,24.77,20.25,24.76Z" transform="translate(-0.67 -0.56)"/></svg>