<svg id="Layer_1" data-name="Layer 1" xmlns="http://www.w3.org/2000/svg" xmlns:xlink="http://www.w3.org/1999/xlink" viewBox="0 0 223.2 216">
  <defs>
    <style>
      .cls-1 {
        fill: url(#New_Gradient_Swatch_1);
      }

      .cls-2 {
        opacity: 0.98;
      }

      .cls-3 {
        fill: url(#linear-gradient);
      }

      .cls-4 {
        font-size: 8.19px;
        fill: #fff;
        font-family: CopperplateGothic-Light, Copperplate Gothic Light;
        font-weight: 300;
      }

      .cls-5 {
        letter-spacing: 0.03em;
      }

      .cls-6 {
        letter-spacing: -0.07em;
      }

      .cls-7 {
        letter-spacing: 0em;
      }

      .cls-8 {
        letter-spacing: -0.01em;
      }

      .cls-9 {
        fill: url(#linear-gradient-8);
      }

      .cls-10 {
        fill: url(#linear-gradient-9);
      }

      .cls-11 {
        fill: url(#linear-gradient-10);
      }

      .cls-12 {
        stroke-miterlimit: 10;
        stroke-width: 0.32px;
        fill: url(#linear-gradient-11);
        stroke: url(#New_Gradient_Swatch_1-2);
      }

      .cls-13 {
        fill: url(#linear-gradient-12);
      }

      .cls-14 {
        fill: url(#linear-gradient-13);
      }

      .cls-15 {
        fill: url(#linear-gradient-14);
      }

      .cls-16 {
        fill: url(#linear-gradient-15);
      }

      .cls-17 {
        fill: url(#linear-gradient-16);
      }

      .cls-18 {
        fill: url(#linear-gradient-17);
      }

      .cls-19 {
        fill: url(#linear-gradient-18);
      }

      .cls-20 {
        fill: url(#linear-gradient-19);
      }

      .cls-21 {
        fill: url(#linear-gradient-20);
      }

      .cls-22 {
        fill: url(#linear-gradient-21);
      }

      .cls-23 {
        fill: url(#linear-gradient-22);
      }

      .cls-24 {
        fill: url(#linear-gradient-23);
      }

      .cls-25 {
        fill: url(#linear-gradient-24);
      }

      .cls-26 {
        fill: url(#linear-gradient-25);
      }

      .cls-27 {
        fill: url(#linear-gradient-26);
      }

      .cls-28 {
        fill: url(#linear-gradient-27);
      }

      .cls-29 {
        fill: url(#linear-gradient-28);
      }

      .cls-30 {
        fill: url(#linear-gradient-29);
      }

      .cls-31 {
        fill: url(#linear-gradient-30);
      }

      .cls-32 {
        fill: url(#linear-gradient-31);
      }

      .cls-33 {
        fill: url(#linear-gradient-32);
      }

      .cls-34 {
        fill: url(#linear-gradient-33);
      }

      .cls-35 {
        fill: url(#linear-gradient-34);
      }

      .cls-36 {
        fill: url(#linear-gradient-35);
      }

      .cls-37 {
        fill: url(#linear-gradient-36);
      }

      .cls-38 {
        fill: url(#linear-gradient-37);
      }

      .cls-39 {
        fill: url(#linear-gradient-38);
      }

      .cls-40 {
        fill: url(#linear-gradient-39);
      }

      .cls-41 {
        fill: url(#linear-gradient-40);
      }

      .cls-42 {
        fill: url(#linear-gradient-41);
      }

      .cls-43 {
        fill: url(#linear-gradient-42);
      }

      .cls-44 {
        fill: url(#linear-gradient-43);
      }

      .cls-45 {
        fill: url(#linear-gradient-44);
      }

      .cls-46 {
        fill: url(#linear-gradient-45);
      }

      .cls-47 {
        fill: url(#linear-gradient-46);
      }

      .cls-48 {
        fill: url(#linear-gradient-47);
      }

      .cls-49 {
        fill: url(#linear-gradient-48);
      }

      .cls-50 {
        fill: url(#linear-gradient-49);
      }

      .cls-51 {
        fill: url(#linear-gradient-50);
      }

      .cls-52 {
        fill: url(#linear-gradient-51);
      }

      .cls-53 {
        fill: url(#linear-gradient-52);
      }

      .cls-54 {
        fill: url(#linear-gradient-53);
      }

      .cls-55 {
        fill: url(#linear-gradient-54);
      }

      .cls-56 {
        fill: url(#linear-gradient-55);
      }

      .cls-57 {
        fill: url(#linear-gradient-56);
      }

      .cls-58 {
        fill: url(#linear-gradient-57);
      }

      .cls-59 {
        fill: url(#linear-gradient-58);
      }

      .cls-60 {
        fill: url(#linear-gradient-59);
      }

      .cls-61 {
        fill: url(#linear-gradient-60);
      }

      .cls-62 {
        fill: url(#linear-gradient-61);
      }

      .cls-63 {
        fill: url(#linear-gradient-62);
      }

      .cls-64 {
        fill: url(#linear-gradient-63);
      }

      .cls-65 {
        fill: url(#linear-gradient-64);
      }

      .cls-66 {
        fill: url(#linear-gradient-65);
      }

      .cls-67 {
        fill: url(#linear-gradient-66);
      }

      .cls-68 {
        fill: url(#linear-gradient-67);
      }

      .cls-69 {
        fill: url(#linear-gradient-68);
      }

      .cls-70 {
        fill: url(#linear-gradient-69);
      }

      .cls-71 {
        fill: url(#linear-gradient-70);
      }

      .cls-72 {
        fill: url(#linear-gradient-71);
      }

      .cls-73 {
        fill: url(#linear-gradient-72);
      }

      .cls-74 {
        fill: url(#linear-gradient-73);
      }

      .cls-75 {
        fill: url(#linear-gradient-74);
      }

      .cls-76 {
        fill: url(#linear-gradient-75);
      }

      .cls-77 {
        fill: url(#linear-gradient-76);
      }

      .cls-78 {
        fill: url(#linear-gradient-77);
      }

      .cls-79 {
        fill: url(#linear-gradient-78);
      }

      .cls-80 {
        fill: url(#linear-gradient-79);
      }

      .cls-81 {
        fill: url(#linear-gradient-80);
      }

      .cls-82 {
        fill: url(#linear-gradient-81);
      }

      .cls-83 {
        fill: url(#linear-gradient-82);
      }

      .cls-84 {
        fill: url(#linear-gradient-83);
      }

      .cls-85 {
        fill: url(#linear-gradient-84);
      }

      .cls-86 {
        fill: url(#linear-gradient-85);
      }

      .cls-87 {
        fill: url(#linear-gradient-86);
      }

      .cls-88 {
        fill: url(#linear-gradient-87);
      }

      .cls-89 {
        fill: url(#linear-gradient-88);
      }

      .cls-90 {
        fill: url(#linear-gradient-89);
      }

      .cls-91 {
        fill: url(#linear-gradient-90);
      }

      .cls-92 {
        fill: url(#linear-gradient-91);
      }

      .cls-93 {
        fill: url(#linear-gradient-92);
      }

      .cls-94 {
        fill: url(#linear-gradient-93);
      }

      .cls-95 {
        fill: url(#linear-gradient-94);
      }

      .cls-96 {
        fill: url(#linear-gradient-95);
      }

      .cls-97 {
        fill: url(#linear-gradient-96);
      }

      .cls-98 {
        fill: url(#linear-gradient-97);
      }

      .cls-99 {
        fill: url(#linear-gradient-98);
      }

      .cls-100 {
        fill: url(#linear-gradient-99);
      }

      .cls-101 {
        fill: url(#linear-gradient-100);
      }

      .cls-102 {
        fill: url(#linear-gradient-101);
      }

      .cls-103 {
        fill: url(#linear-gradient-102);
      }

      .cls-104 {
        fill: url(#linear-gradient-103);
      }

      .cls-105 {
        fill: url(#linear-gradient-104);
      }

      .cls-106 {
        fill: url(#linear-gradient-105);
      }

      .cls-107 {
        fill: url(#linear-gradient-106);
      }

      .cls-108 {
        fill: url(#linear-gradient-107);
      }

      .cls-109 {
        fill: url(#linear-gradient-108);
      }

      .cls-110 {
        fill: url(#linear-gradient-109);
      }

      .cls-111 {
        fill: url(#linear-gradient-110);
      }

      .cls-112 {
        fill: url(#linear-gradient-111);
      }

      .cls-113 {
        fill: url(#linear-gradient-112);
      }

      .cls-114 {
        fill: url(#linear-gradient-113);
      }

      .cls-115 {
        fill: url(#linear-gradient-114);
      }

      .cls-116 {
        fill: url(#linear-gradient-115);
      }

      .cls-117 {
        fill: url(#linear-gradient-116);
      }

      .cls-118 {
        fill: url(#linear-gradient-117);
      }

      .cls-119 {
        fill: url(#linear-gradient-118);
      }

      .cls-120 {
        fill: url(#linear-gradient-119);
      }

      .cls-121 {
        fill: url(#linear-gradient-120);
      }

      .cls-122 {
        fill: url(#linear-gradient-121);
      }

      .cls-123 {
        fill: url(#linear-gradient-122);
      }

      .cls-124 {
        fill: url(#linear-gradient-123);
      }

      .cls-125 {
        fill: url(#linear-gradient-124);
      }

      .cls-126 {
        fill: url(#linear-gradient-125);
      }

      .cls-127 {
        fill: url(#linear-gradient-126);
      }

      .cls-128 {
        fill: url(#linear-gradient-127);
      }

      .cls-129 {
        fill: url(#linear-gradient-128);
      }

      .cls-130 {
        fill: url(#linear-gradient-129);
      }

      .cls-131 {
        fill: url(#linear-gradient-130);
      }

      .cls-132 {
        fill: url(#linear-gradient-131);
      }

      .cls-133 {
        fill: url(#linear-gradient-132);
      }

      .cls-134 {
        fill: url(#linear-gradient-133);
      }

      .cls-135 {
        fill: url(#linear-gradient-134);
      }

      .cls-136 {
        fill: url(#linear-gradient-135);
      }

      .cls-137 {
        fill: url(#linear-gradient-136);
      }

      .cls-138 {
        fill: url(#linear-gradient-137);
      }

      .cls-139 {
        fill: url(#linear-gradient-138);
      }

      .cls-140 {
        fill: url(#linear-gradient-139);
      }

      .cls-141 {
        fill: url(#linear-gradient-140);
      }

      .cls-142 {
        fill: url(#linear-gradient-141);
      }

      .cls-143 {
        fill: url(#linear-gradient-142);
      }

      .cls-144 {
        fill: url(#linear-gradient-143);
      }

      .cls-145 {
        fill: url(#linear-gradient-144);
      }

      .cls-146 {
        fill: url(#linear-gradient-145);
      }

      .cls-147 {
        fill: url(#linear-gradient-146);
      }

      .cls-148 {
        fill: url(#linear-gradient-147);
      }

      .cls-149 {
        fill: url(#linear-gradient-148);
      }

      .cls-150 {
        fill: url(#linear-gradient-149);
      }

      .cls-151 {
        fill: url(#linear-gradient-150);
      }

      .cls-152 {
        fill: url(#linear-gradient-151);
      }

      .cls-153 {
        fill: url(#linear-gradient-152);
      }

      .cls-154 {
        fill: url(#linear-gradient-153);
      }

      .cls-155 {
        fill: url(#linear-gradient-154);
      }

      .cls-156 {
        fill: url(#linear-gradient-155);
      }

      .cls-157 {
        fill: url(#linear-gradient-156);
      }

      .cls-158 {
        fill: url(#linear-gradient-157);
      }

      .cls-159 {
        fill: url(#linear-gradient-158);
      }

      .cls-160 {
        fill: url(#linear-gradient-159);
      }

      .cls-161 {
        fill: url(#linear-gradient-160);
      }

      .cls-162 {
        fill: url(#linear-gradient-161);
      }

      .cls-163 {
        fill: url(#linear-gradient-162);
      }

      .cls-164 {
        fill: url(#linear-gradient-163);
      }

      .cls-165 {
        fill: url(#linear-gradient-164);
      }

      .cls-166 {
        fill: url(#linear-gradient-165);
      }

      .cls-167 {
        fill: url(#linear-gradient-166);
      }

      .cls-168 {
        fill: url(#linear-gradient-167);
      }

      .cls-169 {
        fill: url(#linear-gradient-168);
      }

      .cls-170 {
        fill: url(#linear-gradient-169);
      }

      .cls-171 {
        fill: url(#linear-gradient-170);
      }

      .cls-172 {
        fill: url(#linear-gradient-171);
      }

      .cls-173 {
        fill: url(#linear-gradient-172);
      }

      .cls-174 {
        fill: url(#linear-gradient-173);
      }

      .cls-175 {
        fill: url(#linear-gradient-174);
      }

      .cls-176 {
        fill: url(#linear-gradient-175);
      }

      .cls-177 {
        fill: url(#linear-gradient-176);
      }

      .cls-178 {
        fill: url(#linear-gradient-177);
      }

      .cls-179 {
        fill: url(#linear-gradient-178);
      }

      .cls-180 {
        fill: url(#linear-gradient-179);
      }

      .cls-181 {
        fill: url(#linear-gradient-180);
      }

      .cls-182 {
        fill: url(#linear-gradient-181);
      }

      .cls-183 {
        fill: url(#linear-gradient-182);
      }

      .cls-184 {
        fill: url(#linear-gradient-183);
      }

      .cls-185 {
        fill: url(#linear-gradient-184);
      }

      .cls-186 {
        fill: url(#linear-gradient-185);
      }

      .cls-187 {
        fill: url(#linear-gradient-186);
      }

      .cls-188 {
        fill: url(#linear-gradient-187);
      }

      .cls-189 {
        fill: url(#linear-gradient-188);
      }

      .cls-190 {
        fill: url(#linear-gradient-189);
      }

      .cls-191 {
        fill: url(#linear-gradient-190);
      }
    </style>
    <linearGradient id="New_Gradient_Swatch_1" data-name="New Gradient Swatch 1" x1="35.33" y1="106.35" x2="177.3" y2="106.35" gradientUnits="userSpaceOnUse">
      <stop offset="0" stop-color="#c99a4f"/>
      <stop offset="0.53" stop-color="#f3de79"/>
      <stop offset="0.63" stop-color="#f6f2c1"/>
      <stop offset="0.64" stop-color="#f3ebb4"/>
      <stop offset="0.66" stop-color="#ecdc98"/>
      <stop offset="0.68" stop-color="#e7d083"/>
      <stop offset="0.7" stop-color="#e4c774"/>
      <stop offset="0.73" stop-color="#e2c36b"/>
      <stop offset="0.78" stop-color="#e1c168"/>
    </linearGradient>
    <linearGradient id="linear-gradient" x1="65.48" y1="139.77" x2="147.57" y2="139.77" gradientUnits="userSpaceOnUse">
      <stop offset="0.09" stop-color="#c99a4f"/>
      <stop offset="0.44" stop-color="#f5e17b"/>
      <stop offset="0.52" stop-color="#f6f2c1"/>
      <stop offset="0.53" stop-color="#f6edab"/>
      <stop offset="0.54" stop-color="#f5e896"/>
      <stop offset="0.55" stop-color="#f5e487"/>
      <stop offset="0.56" stop-color="#f5e27e"/>
      <stop offset="0.57" stop-color="#f5e17b"/>
      <stop offset="0.93" stop-color="#e1c168"/>
    </linearGradient>
    <linearGradient id="linear-gradient-8" x1="83.34" y1="100.79" x2="84.34" y2="100.7" gradientUnits="userSpaceOnUse">
      <stop offset="0" stop-color="#462523"/>
      <stop offset="0.07" stop-color="#482724"/>
      <stop offset="0.09" stop-color="#4f2d26"/>
      <stop offset="0.11" stop-color="#5a372a"/>
      <stop offset="0.13" stop-color="#6b4630"/>
      <stop offset="0.14" stop-color="#815a37"/>
      <stop offset="0.15" stop-color="#9d7240"/>
      <stop offset="0.16" stop-color="#bc8e4b"/>
      <stop offset="0.16" stop-color="#c99a4f"/>
      <stop offset="0.29" stop-color="#e4c76b"/>
      <stop offset="0.47" stop-color="#f5e17b"/>
      <stop offset="0.52" stop-color="#f6f2c1"/>
      <stop offset="0.53" stop-color="#f6edab"/>
      <stop offset="0.54" stop-color="#f5e896"/>
      <stop offset="0.55" stop-color="#f5e487"/>
      <stop offset="0.56" stop-color="#f5e27e"/>
      <stop offset="0.57" stop-color="#f5e17b"/>
      <stop offset="0.74" stop-color="#e1c168"/>
      <stop offset="0.83" stop-color="#c99a4f"/>
      <stop offset="1" stop-color="#462523"/>
    </linearGradient>
    <linearGradient id="linear-gradient-9" x1="118.34" y1="100.3" x2="119.32" y2="100.21" xlink:href="#linear-gradient-8"/>
    <linearGradient id="linear-gradient-10" x1="108.14" y1="102.09" x2="110.3" y2="101.9" xlink:href="#linear-gradient-8"/>
    <linearGradient id="linear-gradient-11" x1="81.32" y1="111.23" x2="129.35" y2="107.03" gradientUnits="userSpaceOnUse">
      <stop offset="0" stop-color="#462523"/>
      <stop offset="0.07" stop-color="#482724"/>
      <stop offset="0.09" stop-color="#4f2d26"/>
      <stop offset="0.11" stop-color="#5a372a"/>
      <stop offset="0.13" stop-color="#6b4630"/>
      <stop offset="0.14" stop-color="#815a37"/>
      <stop offset="0.15" stop-color="#9d7240"/>
      <stop offset="0.16" stop-color="#bc8e4b"/>
      <stop offset="0.16" stop-color="#c99a4f"/>
      <stop offset="0.29" stop-color="#e4c76b"/>
      <stop offset="0.46" stop-color="#f5e17b"/>
      <stop offset="0.52" stop-color="#f6f2c1"/>
      <stop offset="0.54" stop-color="#f6edab"/>
      <stop offset="0.56" stop-color="#f5e896"/>
      <stop offset="0.58" stop-color="#f5e487"/>
      <stop offset="0.61" stop-color="#f5e27e"/>
      <stop offset="0.65" stop-color="#f5e17b"/>
      <stop offset="0.74" stop-color="#e1c168"/>
      <stop offset="0.83" stop-color="#c99a4f"/>
      <stop offset="1" stop-color="#462523"/>
    </linearGradient>
    <linearGradient id="New_Gradient_Swatch_1-2" x1="81.36" y1="108.56" x2="129.94" y2="108.56" xlink:href="#New_Gradient_Swatch_1"/>
    <linearGradient id="linear-gradient-12" x1="108.64" y1="107.42" x2="109.67" y2="107.33" xlink:href="#linear-gradient-8"/>
    <linearGradient id="linear-gradient-13" x1="107.34" y1="109.17" x2="109.18" y2="109.01" xlink:href="#linear-gradient-8"/>
    <linearGradient id="linear-gradient-14" x1="110.9" y1="100.16" x2="111.67" y2="100.09" xlink:href="#linear-gradient-8"/>
    <linearGradient id="linear-gradient-15" x1="111.87" y1="104.58" x2="112.37" y2="104.54" xlink:href="#linear-gradient-8"/>
    <linearGradient id="linear-gradient-16" x1="112.62" y1="103.48" x2="113.42" y2="103.41" xlink:href="#linear-gradient-8"/>
    <linearGradient id="linear-gradient-17" x1="113.87" y1="103.96" x2="116.06" y2="103.76" xlink:href="#linear-gradient-8"/>
    <linearGradient id="linear-gradient-18" x1="117.32" y1="101.21" x2="117.87" y2="101.16" xlink:href="#linear-gradient-8"/>
    <linearGradient id="linear-gradient-19" x1="115.32" y1="109.51" x2="116.76" y2="109.38" xlink:href="#linear-gradient-8"/>
    <linearGradient id="linear-gradient-20" x1="94.54" y1="106.28" x2="95.42" y2="106.2" xlink:href="#linear-gradient-8"/>
    <linearGradient id="linear-gradient-21" x1="113.82" y1="104.76" x2="116.32" y2="104.54" xlink:href="#linear-gradient-8"/>
    <linearGradient id="linear-gradient-22" x1="107.96" y1="107.96" x2="109.18" y2="107.86" xlink:href="#linear-gradient-8"/>
    <linearGradient id="linear-gradient-23" x1="79.73" y1="102.31" x2="83.19" y2="102.01" xlink:href="#linear-gradient-8"/>
    <linearGradient id="linear-gradient-24" x1="81.23" y1="107.74" x2="83.49" y2="107.54" xlink:href="#linear-gradient-8"/>
    <linearGradient id="linear-gradient-25" x1="80.91" y1="108.9" x2="83.84" y2="108.65" xlink:href="#linear-gradient-8"/>
    <linearGradient id="linear-gradient-26" x1="119.63" y1="106.39" x2="121.82" y2="106.2" xlink:href="#linear-gradient-8"/>
    <linearGradient id="linear-gradient-27" x1="121.5" y1="106.18" x2="122.98" y2="106.05" xlink:href="#linear-gradient-8"/>
    <linearGradient id="linear-gradient-28" x1="123.2" y1="107.92" x2="124.74" y2="107.79" xlink:href="#linear-gradient-8"/>
    <linearGradient id="linear-gradient-29" x1="128.62" y1="101.88" x2="130.3" y2="101.73" xlink:href="#linear-gradient-8"/>
    <linearGradient id="linear-gradient-30" x1="124.67" y1="108.9" x2="127.13" y2="108.69" xlink:href="#linear-gradient-8"/>
    <linearGradient id="linear-gradient-31" x1="83.75" y1="103.53" x2="85.08" y2="103.42" xlink:href="#linear-gradient-8"/>
    <linearGradient id="linear-gradient-32" x1="116.52" y1="92.67" x2="119.07" y2="92.45" xlink:href="#linear-gradient-8"/>
    <linearGradient id="linear-gradient-33" x1="130.78" y1="111.1" x2="134.04" y2="110.81" xlink:href="#linear-gradient-8"/>
    <linearGradient id="linear-gradient-34" x1="96.98" y1="94.89" x2="98.15" y2="94.78" xlink:href="#linear-gradient-8"/>
    <linearGradient id="linear-gradient-35" x1="106.12" y1="96.91" x2="107.62" y2="96.78" xlink:href="#linear-gradient-8"/>
    <linearGradient id="linear-gradient-36" x1="99.17" y1="108.62" x2="100.13" y2="108.54" xlink:href="#linear-gradient-8"/>
    <linearGradient id="linear-gradient-37" x1="116.21" y1="93.61" x2="118.25" y2="93.43" xlink:href="#linear-gradient-8"/>
    <linearGradient id="linear-gradient-38" x1="116.74" y1="89.78" x2="118.48" y2="89.62" xlink:href="#linear-gradient-8"/>
    <linearGradient id="linear-gradient-39" x1="78.02" y1="113.67" x2="81.03" y2="113.41" xlink:href="#linear-gradient-8"/>
    <linearGradient id="linear-gradient-40" x1="122.86" y1="106" x2="124.93" y2="105.82" xlink:href="#linear-gradient-8"/>
    <linearGradient id="linear-gradient-41" x1="124.9" y1="113.53" x2="127.28" y2="113.32" xlink:href="#linear-gradient-8"/>
    <linearGradient id="linear-gradient-42" x1="100.9" y1="90.94" x2="102.14" y2="90.83" xlink:href="#linear-gradient-8"/>
    <linearGradient id="linear-gradient-43" x1="86.87" y1="108.65" x2="88.52" y2="108.5" xlink:href="#linear-gradient-8"/>
    <linearGradient id="linear-gradient-44" x1="127.83" y1="103.22" x2="130.98" y2="102.95" xlink:href="#linear-gradient-8"/>
    <linearGradient id="linear-gradient-45" x1="111.96" y1="92.97" x2="114.02" y2="92.79" xlink:href="#linear-gradient-8"/>
    <linearGradient id="linear-gradient-46" x1="117.76" y1="108.91" x2="119.04" y2="108.8" xlink:href="#linear-gradient-8"/>
    <linearGradient id="linear-gradient-47" x1="88.78" y1="104.76" x2="89.89" y2="104.66" xlink:href="#linear-gradient-8"/>
    <linearGradient id="linear-gradient-48" x1="78.07" y1="112.19" x2="81.36" y2="111.9" xlink:href="#linear-gradient-8"/>
    <linearGradient id="linear-gradient-49" x1="84.79" y1="108.85" x2="85.97" y2="108.75" xlink:href="#linear-gradient-8"/>
    <linearGradient id="linear-gradient-50" x1="112.03" y1="90.99" x2="114.42" y2="90.78" xlink:href="#linear-gradient-8"/>
    <linearGradient id="linear-gradient-51" x1="110.55" y1="89.21" x2="111.44" y2="89.13" xlink:href="#linear-gradient-8"/>
    <linearGradient id="linear-gradient-52" x1="127.34" y1="113.49" x2="129.09" y2="113.33" xlink:href="#linear-gradient-8"/>
    <linearGradient id="linear-gradient-53" x1="91.1" y1="95.82" x2="91.95" y2="95.74" xlink:href="#linear-gradient-8"/>
    <linearGradient id="linear-gradient-54" x1="126.99" y1="100.84" x2="128.99" y2="100.66" xlink:href="#linear-gradient-8"/>
    <linearGradient id="linear-gradient-55" x1="119.41" y1="101.68" x2="122.6" y2="101.41" xlink:href="#linear-gradient-8"/>
    <linearGradient id="linear-gradient-56" x1="83.77" y1="98.6" x2="86.74" y2="98.34" xlink:href="#linear-gradient-8"/>
    <linearGradient id="linear-gradient-57" x1="118.24" y1="97.48" x2="121.27" y2="97.22" xlink:href="#linear-gradient-8"/>
    <linearGradient id="linear-gradient-58" x1="95.08" y1="91.82" x2="95.92" y2="91.75" xlink:href="#linear-gradient-8"/>
    <linearGradient id="linear-gradient-59" x1="121.22" y1="100.28" x2="124.4" y2="100.01" xlink:href="#linear-gradient-8"/>
    <linearGradient id="linear-gradient-60" x1="125.94" y1="104.49" x2="128.42" y2="104.28" xlink:href="#linear-gradient-8"/>
    <linearGradient id="linear-gradient-61" x1="92.42" y1="94.28" x2="95.12" y2="94.05" xlink:href="#linear-gradient-8"/>
    <linearGradient id="linear-gradient-62" x1="104.84" y1="96.37" x2="105.68" y2="96.29" xlink:href="#linear-gradient-8"/>
    <linearGradient id="linear-gradient-63" x1="86.87" y1="98.09" x2="88.16" y2="97.98" xlink:href="#linear-gradient-8"/>
    <linearGradient id="linear-gradient-64" x1="97.99" y1="88.36" x2="99.19" y2="88.25" xlink:href="#linear-gradient-8"/>
    <linearGradient id="linear-gradient-65" x1="117.36" y1="90.17" x2="120.2" y2="89.92" xlink:href="#linear-gradient-8"/>
    <linearGradient id="linear-gradient-66" x1="104.1" y1="92.7" x2="106.15" y2="92.52" xlink:href="#linear-gradient-8"/>
    <linearGradient id="linear-gradient-67" x1="96.65" y1="89.66" x2="99.16" y2="89.44" xlink:href="#linear-gradient-8"/>
    <linearGradient id="linear-gradient-68" x1="83.01" y1="93.23" x2="85.3" y2="93.03" xlink:href="#linear-gradient-8"/>
    <linearGradient id="linear-gradient-69" x1="100" y1="90.45" x2="101.18" y2="90.35" xlink:href="#linear-gradient-8"/>
    <linearGradient id="linear-gradient-70" x1="93.49" y1="96.6" x2="96.17" y2="96.36" xlink:href="#linear-gradient-8"/>
    <linearGradient id="linear-gradient-71" x1="89.88" y1="109.46" x2="90.58" y2="109.4" xlink:href="#linear-gradient-8"/>
    <linearGradient id="linear-gradient-72" x1="85.29" y1="112.13" x2="87.88" y2="111.9" xlink:href="#linear-gradient-8"/>
    <linearGradient id="linear-gradient-73" x1="80.31" y1="103.6" x2="82.73" y2="103.39" xlink:href="#linear-gradient-8"/>
    <linearGradient id="linear-gradient-74" x1="88.88" y1="112.64" x2="91.01" y2="112.45" xlink:href="#linear-gradient-8"/>
    <linearGradient id="linear-gradient-75" x1="95.02" y1="106.77" x2="96.97" y2="106.6" xlink:href="#linear-gradient-8"/>
    <linearGradient id="linear-gradient-76" x1="114.69" y1="110.9" x2="116.7" y2="110.72" xlink:href="#linear-gradient-8"/>
    <linearGradient id="linear-gradient-77" x1="109.42" y1="101.39" x2="111.14" y2="101.24" xlink:href="#linear-gradient-8"/>
    <linearGradient id="linear-gradient-78" x1="102.35" y1="100.32" x2="104.18" y2="100.16" xlink:href="#linear-gradient-8"/>
    <linearGradient id="linear-gradient-79" x1="97.88" y1="108.09" x2="99.08" y2="107.98" xlink:href="#linear-gradient-8"/>
    <linearGradient id="linear-gradient-80" x1="116.55" y1="108.62" x2="117.6" y2="108.53" xlink:href="#linear-gradient-8"/>
    <linearGradient id="linear-gradient-81" x1="115.71" y1="96.75" x2="116.74" y2="96.66" xlink:href="#linear-gradient-8"/>
    <linearGradient id="linear-gradient-82" x1="97.74" y1="96.94" x2="99.08" y2="96.82" xlink:href="#linear-gradient-8"/>
    <linearGradient id="linear-gradient-83" x1="93" y1="106.68" x2="94.55" y2="106.54" xlink:href="#linear-gradient-8"/>
    <linearGradient id="linear-gradient-84" x1="101.27" y1="97.45" x2="102" y2="97.39" xlink:href="#linear-gradient-8"/>
    <linearGradient id="linear-gradient-85" x1="102.14" y1="98.08" x2="103.16" y2="97.99" xlink:href="#linear-gradient-8"/>
    <linearGradient id="linear-gradient-86" x1="99.94" y1="98.51" x2="101.37" y2="98.39" xlink:href="#linear-gradient-8"/>
    <linearGradient id="linear-gradient-87" x1="111.68" y1="90.13" x2="112.91" y2="90.03" xlink:href="#linear-gradient-8"/>
    <linearGradient id="linear-gradient-88" x1="118.34" y1="98.59" x2="119.62" y2="98.48" xlink:href="#linear-gradient-8"/>
    <linearGradient id="linear-gradient-89" x1="130.2" y1="111.71" x2="131.95" y2="111.56" xlink:href="#linear-gradient-8"/>
    <linearGradient id="linear-gradient-90" x1="120.62" y1="108.71" x2="121.86" y2="108.6" xlink:href="#linear-gradient-8"/>
    <linearGradient id="linear-gradient-91" x1="127.55" y1="110.71" x2="130.05" y2="110.49" xlink:href="#linear-gradient-8"/>
    <linearGradient id="linear-gradient-92" x1="122.69" y1="110.45" x2="124.36" y2="110.3" xlink:href="#linear-gradient-8"/>
    <linearGradient id="linear-gradient-93" x1="89.85" y1="105.14" x2="91.31" y2="105.01" xlink:href="#linear-gradient-8"/>
    <linearGradient id="linear-gradient-94" x1="107.87" y1="95.58" x2="109.75" y2="95.41" xlink:href="#linear-gradient-8"/>
    <linearGradient id="linear-gradient-95" x1="93.27" y1="93.24" x2="94.8" y2="93.1" xlink:href="#linear-gradient-8"/>
    <linearGradient id="linear-gradient-96" x1="97.45" y1="95.38" x2="99" y2="95.24" xlink:href="#linear-gradient-8"/>
    <linearGradient id="linear-gradient-97" x1="108.15" y1="96.72" x2="109.95" y2="96.57" xlink:href="#linear-gradient-8"/>
    <linearGradient id="linear-gradient-98" x1="85.08" y1="100.05" x2="87.28" y2="99.86" xlink:href="#linear-gradient-8"/>
    <linearGradient id="linear-gradient-99" x1="96.14" y1="93.48" x2="97.25" y2="93.38" xlink:href="#linear-gradient-8"/>
    <linearGradient id="linear-gradient-100" x1="81.49" y1="110.92" x2="82.66" y2="110.82" xlink:href="#linear-gradient-8"/>
    <linearGradient id="linear-gradient-101" x1="109.34" y1="94.65" x2="110.24" y2="94.57" xlink:href="#linear-gradient-8"/>
    <linearGradient id="linear-gradient-102" x1="109.65" y1="92.75" x2="110.94" y2="92.64" xlink:href="#linear-gradient-8"/>
    <linearGradient id="linear-gradient-103" x1="117.41" y1="91.54" x2="119.18" y2="91.38" xlink:href="#linear-gradient-8"/>
    <linearGradient id="linear-gradient-104" x1="111.87" y1="100.05" x2="113.66" y2="99.89" xlink:href="#linear-gradient-8"/>
    <linearGradient id="linear-gradient-105" x1="92.48" y1="100.37" x2="93.61" y2="100.27" xlink:href="#linear-gradient-8"/>
    <linearGradient id="linear-gradient-106" x1="97.52" y1="105.74" x2="99.1" y2="105.6" xlink:href="#linear-gradient-8"/>
    <linearGradient id="linear-gradient-107" x1="88.32" y1="109.26" x2="89.31" y2="109.17" xlink:href="#linear-gradient-8"/>
    <linearGradient id="linear-gradient-108" x1="86.61" y1="106.21" x2="87.66" y2="106.11" xlink:href="#linear-gradient-8"/>
    <linearGradient id="linear-gradient-109" x1="100.23" y1="107.93" x2="101.22" y2="107.84" xlink:href="#linear-gradient-8"/>
    <linearGradient id="linear-gradient-110" x1="86.66" y1="94.58" x2="87.67" y2="94.49" xlink:href="#linear-gradient-8"/>
    <linearGradient id="linear-gradient-111" x1="94.63" y1="98.05" x2="96.5" y2="97.88" xlink:href="#linear-gradient-8"/>
    <linearGradient id="linear-gradient-112" x1="126.11" y1="110.64" x2="127.47" y2="110.53" xlink:href="#linear-gradient-8"/>
    <linearGradient id="linear-gradient-113" x1="102.01" y1="94.27" x2="103.38" y2="94.15" xlink:href="#linear-gradient-8"/>
    <linearGradient id="linear-gradient-114" x1="88.89" y1="99.04" x2="90.44" y2="98.9" xlink:href="#linear-gradient-8"/>
    <linearGradient id="linear-gradient-115" x1="85.42" y1="97.39" x2="86.5" y2="97.3" xlink:href="#linear-gradient-8"/>
    <linearGradient id="linear-gradient-116" x1="125.14" y1="107.7" x2="127.68" y2="107.48" xlink:href="#linear-gradient-8"/>
    <linearGradient id="linear-gradient-117" x1="92.18" y1="97.05" x2="93.29" y2="96.95" xlink:href="#linear-gradient-8"/>
    <linearGradient id="linear-gradient-118" x1="104.09" y1="94.64" x2="105.5" y2="94.52" xlink:href="#linear-gradient-8"/>
    <linearGradient id="linear-gradient-119" x1="123.2" y1="113.93" x2="124.21" y2="113.84" xlink:href="#linear-gradient-8"/>
    <linearGradient id="linear-gradient-120" x1="112.21" y1="98.4" x2="113.87" y2="98.25" xlink:href="#linear-gradient-8"/>
    <linearGradient id="linear-gradient-121" x1="88.04" y1="94.49" x2="88.8" y2="94.43" xlink:href="#linear-gradient-8"/>
    <linearGradient id="linear-gradient-122" x1="97.95" y1="91.89" x2="99.75" y2="91.73" xlink:href="#linear-gradient-8"/>
    <linearGradient id="linear-gradient-123" x1="99.59" y1="88.77" x2="100.52" y2="88.69" xlink:href="#linear-gradient-8"/>
    <linearGradient id="linear-gradient-124" x1="124.6" y1="100.98" x2="125.58" y2="100.89" xlink:href="#linear-gradient-8"/>
    <linearGradient id="linear-gradient-125" x1="82.96" y1="95.92" x2="85.63" y2="95.69" xlink:href="#linear-gradient-8"/>
    <linearGradient id="linear-gradient-126" x1="102.95" y1="92.57" x2="103.59" y2="92.52" xlink:href="#linear-gradient-8"/>
    <linearGradient id="linear-gradient-127" x1="114.82" y1="91.09" x2="115.51" y2="91.03" xlink:href="#linear-gradient-8"/>
    <linearGradient id="linear-gradient-128" x1="83.68" y1="113.23" x2="84.45" y2="113.16" xlink:href="#linear-gradient-8"/>
    <linearGradient id="linear-gradient-129" x1="88.99" y1="95.22" x2="89.71" y2="95.16" xlink:href="#linear-gradient-8"/>
    <linearGradient id="linear-gradient-130" x1="97.88" y1="93.07" x2="100.15" y2="92.87" xlink:href="#linear-gradient-8"/>
    <linearGradient id="linear-gradient-131" x1="123.42" y1="109.55" x2="125.79" y2="109.35" xlink:href="#linear-gradient-8"/>
    <linearGradient id="linear-gradient-132" x1="119.5" y1="99.87" x2="121" y2="99.74" xlink:href="#linear-gradient-8"/>
    <linearGradient id="linear-gradient-133" x1="126.99" y1="103.84" x2="129.48" y2="103.63" xlink:href="#linear-gradient-8"/>
    <linearGradient id="linear-gradient-134" x1="112.16" y1="91.8" x2="114.59" y2="91.59" xlink:href="#linear-gradient-8"/>
    <linearGradient id="linear-gradient-135" x1="118.23" y1="110.07" x2="120.12" y2="109.91" xlink:href="#linear-gradient-8"/>
    <linearGradient id="linear-gradient-136" x1="108.83" y1="91.33" x2="111.2" y2="91.12" xlink:href="#linear-gradient-8"/>
    <linearGradient id="linear-gradient-137" x1="124.34" y1="113.69" x2="126.05" y2="113.54" xlink:href="#linear-gradient-8"/>
    <linearGradient id="linear-gradient-138" x1="129.62" y1="112.61" x2="131.76" y2="112.42" xlink:href="#linear-gradient-8"/>
    <linearGradient id="linear-gradient-139" x1="125.55" y1="99.54" x2="126.19" y2="99.48" xlink:href="#linear-gradient-8"/>
    <linearGradient id="linear-gradient-140" x1="121.43" y1="98.83" x2="123.44" y2="98.65" xlink:href="#linear-gradient-8"/>
    <linearGradient id="linear-gradient-141" x1="111.58" y1="93.85" x2="113.71" y2="93.66" xlink:href="#linear-gradient-8"/>
    <linearGradient id="linear-gradient-142" x1="117.55" y1="96.79" x2="119.23" y2="96.64" xlink:href="#linear-gradient-8"/>
    <linearGradient id="linear-gradient-143" x1="128.1" y1="113.03" x2="130.1" y2="112.86" xlink:href="#linear-gradient-8"/>
    <linearGradient id="linear-gradient-144" x1="81.72" y1="114.49" x2="83.04" y2="114.38" xlink:href="#linear-gradient-8"/>
    <linearGradient id="linear-gradient-145" x1="89.79" y1="95.02" x2="90.69" y2="94.94" xlink:href="#linear-gradient-8"/>
    <linearGradient id="linear-gradient-146" x1="83.01" y1="107.1" x2="85.28" y2="106.9" xlink:href="#linear-gradient-8"/>
    <linearGradient id="linear-gradient-147" x1="103.87" y1="91.4" x2="104.6" y2="91.33" xlink:href="#linear-gradient-8"/>
    <linearGradient id="linear-gradient-148" x1="87.39" y1="105.7" x2="89.24" y2="105.53" xlink:href="#linear-gradient-8"/>
    <linearGradient id="linear-gradient-149" x1="122.05" y1="108.01" x2="123.19" y2="107.91" xlink:href="#linear-gradient-8"/>
    <linearGradient id="linear-gradient-150" x1="131.55" y1="109.65" x2="133.88" y2="109.45" xlink:href="#linear-gradient-8"/>
    <linearGradient id="linear-gradient-151" x1="84.81" y1="106.43" x2="86.45" y2="106.28" xlink:href="#linear-gradient-8"/>
    <linearGradient id="linear-gradient-152" x1="83.01" y1="94.83" x2="85.37" y2="94.63" xlink:href="#linear-gradient-8"/>
    <linearGradient id="linear-gradient-153" x1="99.19" y1="99.56" x2="101.53" y2="99.36" xlink:href="#linear-gradient-8"/>
    <linearGradient id="linear-gradient-154" x1="82.32" y1="103.88" x2="83.96" y2="103.74" xlink:href="#linear-gradient-8"/>
    <linearGradient id="linear-gradient-155" x1="81.07" y1="101.41" x2="83.23" y2="101.22" xlink:href="#linear-gradient-8"/>
    <linearGradient id="linear-gradient-156" x1="128.41" y1="108.75" x2="129.93" y2="108.62" xlink:href="#linear-gradient-8"/>
    <linearGradient id="linear-gradient-157" x1="80.02" y1="113.74" x2="81.6" y2="113.6" xlink:href="#linear-gradient-8"/>
    <linearGradient id="linear-gradient-158" x1="92.59" y1="95.23" x2="94.74" y2="95.05" xlink:href="#linear-gradient-8"/>
    <linearGradient id="linear-gradient-159" x1="97.12" y1="90.78" x2="99.38" y2="90.58" xlink:href="#linear-gradient-8"/>
    <linearGradient id="linear-gradient-160" x1="127.57" y1="99.26" x2="129.43" y2="99.09" xlink:href="#linear-gradient-8"/>
    <linearGradient id="linear-gradient-161" x1="126.61" y1="99.17" x2="127.69" y2="99.08" xlink:href="#linear-gradient-8"/>
    <linearGradient id="linear-gradient-162" x1="124.44" y1="110.98" x2="125.82" y2="110.86" xlink:href="#linear-gradient-8"/>
    <linearGradient id="linear-gradient-163" x1="115.75" y1="90.05" x2="116.58" y2="89.97" xlink:href="#linear-gradient-8"/>
    <linearGradient id="linear-gradient-164" x1="79.48" y1="111.17" x2="81.43" y2="111" xlink:href="#linear-gradient-8"/>
    <linearGradient id="linear-gradient-165" x1="116.97" y1="96.56" x2="118.08" y2="96.46" xlink:href="#linear-gradient-8"/>
    <linearGradient id="linear-gradient-166" x1="105.8" y1="95.72" x2="106.67" y2="95.65" xlink:href="#linear-gradient-8"/>
    <linearGradient id="linear-gradient-167" x1="85.65" y1="100.99" x2="88.03" y2="100.78" xlink:href="#linear-gradient-8"/>
    <linearGradient id="linear-gradient-168" x1="123.97" y1="105.34" x2="126.44" y2="105.13" xlink:href="#linear-gradient-8"/>
    <linearGradient id="linear-gradient-169" x1="86.5" y1="112.82" x2="88.17" y2="112.67" xlink:href="#linear-gradient-8"/>
    <linearGradient id="linear-gradient-170" x1="108.31" y1="94.2" x2="109.41" y2="94.1" xlink:href="#linear-gradient-8"/>
    <linearGradient id="linear-gradient-171" x1="109.69" y1="90.06" x2="110.98" y2="89.95" xlink:href="#linear-gradient-8"/>
    <linearGradient id="linear-gradient-172" x1="82.67" y1="109.17" x2="84.36" y2="109.03" xlink:href="#linear-gradient-8"/>
    <linearGradient id="linear-gradient-173" x1="115.65" y1="94.3" x2="116.59" y2="94.22" xlink:href="#linear-gradient-8"/>
    <linearGradient id="linear-gradient-174" x1="129.69" y1="110.33" x2="131.55" y2="110.17" xlink:href="#linear-gradient-8"/>
    <linearGradient id="linear-gradient-175" x1="127.65" y1="108.87" x2="128.33" y2="108.81" xlink:href="#linear-gradient-8"/>
    <linearGradient id="linear-gradient-176" x1="121.33" y1="104.09" x2="123.39" y2="103.91" xlink:href="#linear-gradient-8"/>
    <linearGradient id="linear-gradient-177" x1="123.37" y1="104.27" x2="125.43" y2="104.09" xlink:href="#linear-gradient-8"/>
    <linearGradient id="linear-gradient-178" x1="123.42" y1="101.7" x2="124.92" y2="101.57" xlink:href="#linear-gradient-8"/>
    <linearGradient id="linear-gradient-179" x1="126.12" y1="101.82" x2="128.14" y2="101.64" xlink:href="#linear-gradient-8"/>
    <linearGradient id="linear-gradient-180" x1="86.26" y1="93.28" x2="86.92" y2="93.22" xlink:href="#linear-gradient-8"/>
    <linearGradient id="linear-gradient-181" x1="85.09" y1="93.3" x2="85.92" y2="93.23" xlink:href="#linear-gradient-8"/>
    <linearGradient id="linear-gradient-182" x1="88.38" y1="98.21" x2="88.88" y2="98.17" xlink:href="#linear-gradient-8"/>
    <linearGradient id="linear-gradient-183" x1="81.52" y1="113.28" x2="82.1" y2="113.23" xlink:href="#linear-gradient-8"/>
    <linearGradient id="linear-gradient-184" x1="83.23" y1="114.44" x2="83.78" y2="114.4" xlink:href="#linear-gradient-8"/>
    <linearGradient id="linear-gradient-185" x1="88.13" y1="113.27" x2="88.81" y2="113.22" xlink:href="#linear-gradient-8"/>
    <linearGradient id="linear-gradient-186" x1="113.79" y1="102.14" x2="114.98" y2="102.03" xlink:href="#linear-gradient-8"/>
    <linearGradient id="linear-gradient-187" x1="110.77" y1="105.68" x2="111.8" y2="105.59" xlink:href="#linear-gradient-8"/>
    <linearGradient id="linear-gradient-188" x1="116.25" y1="102.75" x2="117.28" y2="102.65" xlink:href="#linear-gradient-8"/>
    <linearGradient id="linear-gradient-189" x1="109.91" y1="107.8" x2="111.08" y2="107.7" xlink:href="#linear-gradient-8"/>
    <linearGradient id="linear-gradient-190" x1="113.08" y1="106.02" x2="115.29" y2="105.83" xlink:href="#linear-gradient-8"/>
  </defs>
  <g>
    <path class="cls-1" d="M105.91,18c.56,11.35-6.7,20.69-14.28,28.37C82.08,56.06,71.18,64.3,61.4,73.73c-10,9.66-19.28,20.71-23.85,34.06-4.87,14.22-3.34,29.07,1.17,43.15,10.41,32.45,47.81,48.35,79.93,42.57,31.91-5.74,65.62-35.95,58.39-70.89-1.42-6.83-3.47-13.71-7.06-19.73-4-6.64-9.45-12.15-15.13-17.32C140.1,72.15,125.5,59.83,116.92,41.3c.67,1.46.84,4.75,1.75,6.7,6.7,14.47,17.08,25.88,28.9,36.37,9.81,8.71,20.84,17.28,26.43,29.51,6.36,13.94-.24,30.89-8.73,42.35a79.67,79.67,0,0,1-40,28.29c-29.12,9-67.24-1.26-83.16-28.59s2.08-57.05,22-76C74,70.46,85,62.18,94.5,52.31c7.3-7.57,13.85-16.64,13.32-27.64-.1-2.11-1.83-5.1-1.91-6.65Z"/>
    <g class="cls-2">
      <g>
        <path class="cls-3" d="M75.89,130.45c1.74,1.84,2.49,5.19,2.49,8.12a15.64,15.64,0,0,1-.21,2.6c0,.1,0,.23,0,.34s-.14.2-.14.37v.17a1,1,0,0,1-.17.51,3.79,3.79,0,0,1-.2.72,2.07,2.07,0,0,0-.24.58c-1.36,3-3.45,5.53-6.76,6.18,0,.44-.06,1.09-.06,1.46v.17c-.07-.1,0-.27-.07-.37l0,.27c-.13-.17,0-.37-.2-.61a4.05,4.05,0,0,0,0,.68c-.06,0,0-.1-.13-.1l-.07-.14c-.07,0-.1.07-.1.1s.1.17.13.21c-.13,0-1.16,0-1.29,0s0-.06-.07-.06-.1,0-.1.06c0-.17-.69-.2-.82-.2a2.28,2.28,0,0,1,.1.31c-.07-.07-.14-.21-.24-.21v.17c-.07,0-.07-.17-.1-.2v.1c-.14,0-.1-.07-.21-.34,0,0,0,.13,0,.13l-.14.07a.16.16,0,0,1,0,.11s0,.06-.07.06,0-.24-.07-.27v.38c-.07-.11-.1-.17-.17-.17a.18.18,0,0,0-.1.06c0-.17,0-.27,0-.27s-.06.14-.06.38c-.07-.21-.07-.45-.24-.52,0,.07.06.17.06.28a.21.21,0,0,1-.17-.11v.14a.23.23,0,0,1,.07.14l-.07-.1-.2.06c-.1,0-.14-.13-.21-.24s0-.13,0-.2a.25.25,0,0,1,0-.14,1.15,1.15,0,0,1-.3-.58v-.1a9.68,9.68,0,0,0-.21-.95.75.75,0,0,1,0-.28v.14c0,.07,0,.1,0,.1s0,0,.07-.13.07-.31.07-.48a.73.73,0,0,0-.07-.24l-.14.37v-.13c0-.24.07-.45.07-.68.14-4.51,1.5-11.64,2-16.52,0-.44.17-1.36.17-1.36-.44,0-1-.07-1.43-.11-.24-.06-.82-.1-.82-.4.14-.62.79-.72,1.3-.93a7.71,7.71,0,0,1,3.21-.64C72.17,128.17,74.63,128.88,75.89,130.45ZM66.1,149.29s0-.48,0-.48-.07.24-.07.34A.13.13,0,0,0,66.1,149.29Zm.24-1.3a8.5,8.5,0,0,0,.2-1.2.57.57,0,0,0-.07-.27c0,.07-.07.14-.1.24a.86.86,0,0,1,0,.27.29.29,0,0,1-.1.24.93.93,0,0,1-.07.24.13.13,0,0,1,0-.1v-.1a2.54,2.54,0,0,1-.17.51c.07,0,.1.07.1.17s0,.14,0,.2v.35c.13,0,.17-.72.17-.76S66.3,147.89,66.34,148Zm.1-2.7-.31,1.13a.69.69,0,0,0,.14-.34l-.1.85a1.78,1.78,0,0,1,.3-.72s0-.1,0-.17,0-.13.1-.13a1.54,1.54,0,0,0,0,.37.13.13,0,0,1,0-.07,7.4,7.4,0,0,0,.1-.92V145s-.07,0-.07.14,0,.1,0,.13a.51.51,0,0,0,0,.21,1.43,1.43,0,0,1,0-.21c0,.07-.1.48-.14.48S66.44,145.46,66.44,145.29Zm-.17.28c-.1,0-.14,0-.14.06a1.3,1.3,0,0,1,0,.21A.57.57,0,0,0,66.27,145.57Zm.3-1.23c0-.1.07-.17.07-.34a.22.22,0,0,0-.1.2A.24.24,0,0,0,66.57,144.34Zm.11,3.72v-1a6.61,6.61,0,0,0,.24-1.16c0-.1,0-.17-.07-.17s-.14.2-.14.3a.13.13,0,0,0,0,.11l-.11.1a.32.32,0,0,1,.11,0,2.93,2.93,0,0,0-.11.38,11.74,11.74,0,0,0-.1,1.64v.2a1.11,1.11,0,0,0,.1-.27A.13.13,0,0,0,66.68,148.06Zm.13-3.72s0-.07,0-.1v-.14a.49.49,0,0,0-.14.31.19.19,0,0,0,.11,0,.14.14,0,0,1,0-.1s0,.1,0,.1S66.85,144.34,66.81,144.34Zm.65,2.56a.58.58,0,0,0,0-.21v.55c-.07,0-.1.17-.14.17a.14.14,0,0,1,0-.1.34.34,0,0,0,.07-.21,1.49,1.49,0,0,1-.07-.44,1,1,0,0,0-.07.31,1.67,1.67,0,0,1-.07.47l-.07-.13c0,.07,0,.1,0,.13a.19.19,0,0,1-.07.14.08.08,0,0,1,.07.07.2.2,0,0,1-.11.17v.1s0-.07-.06-.07l0,.14a.13.13,0,0,1,.07,0A.06.06,0,0,0,67,148s.24-.13.27-.17A2.82,2.82,0,0,0,67.46,146.9ZM67,149.46a.44.44,0,0,0,0-.21.08.08,0,0,0-.07.07S67,149.42,67,149.46Zm6.38-18-.1.1a17.9,17.9,0,0,1-.41,2.9c-.48,2.8-.79,5.67-1.4,8.53a38.58,38.58,0,0,0-.62,3.82,10.61,10.61,0,0,0,4.75-8.93C75.62,135.26,74.87,132.57,73.4,131.44Z"/>
        <path class="cls-3" d="M82.54,146c0,.79.21,1.44.85,1.61,3-.48,6.35-5.5,7.37-7.07a.32.32,0,0,1,.21-.06c.14,0,.17.2.17.44v.21a.66.66,0,0,0,0,.2c0,.14.06.14.06.17a.17.17,0,0,1,0,.1.31.31,0,0,0,0,.17c0,.14,0,.31,0,.34s-.17.28-.14.28-.3.48-.24.48a.42.42,0,0,1-.13.37c-1.13,2.15-3.89,5.46-6.72,5.46A4.76,4.76,0,0,1,79.5,144c0-3.24,2.94-6.72,5.91-6.72.54,0,1.63.65,1.74,1.23a4.62,4.62,0,0,1,.07.65A3.89,3.89,0,0,1,83.77,143a1.6,1.6,0,0,1-.44,0A7.09,7.09,0,0,0,82.54,146Zm1-3.71c1.13-.35,2.26-2.15,2.84-3.42,0-.17-.11-.24-.17-.24s-.45.28-.45.28A13.55,13.55,0,0,0,83.56,142.33Z"/>
        <path class="cls-3" d="M99.7,150.55c0,.07-.1.1-.13.17s0,0-.11,0-.06.11-.06.11a1.16,1.16,0,0,0-.35.06,10.78,10.78,0,0,1-4.87,1.06c-.86,0-1.71-.1-1.92-.1a3.81,3.81,0,0,1-2.9-2.39,7.49,7.49,0,0,1-.23-2.25c0-.07.06-.14.06-.24s0-.51,0-.78c0-4.57,2-15,3.24-17.3a5.79,5.79,0,0,1,.55-.68,3.14,3.14,0,0,1,1.16-.28.13.13,0,0,0,.1,0,2,2,0,0,0,.51-.14c.1,0,.21-.1.38-.1H96a2.54,2.54,0,0,0,.51.17.22.22,0,0,0,.17-.07.51.51,0,0,0,.27,0c.11,0,.24.1.41.1h.14a.59.59,0,0,0,.31.1c0,.07,0,.07.13.1.52.11.65.48.65.93a7.51,7.51,0,0,1-.27,1.5c-.48,2.45-1.3,4.74-1.77,7.06-.79,3-2.09,8.22-2.09,11.12V149c0,.75.76.85,1.4.85,1.5,0,2.73-.2,4-.27a12.89,12.89,0,0,1,1.33-.07,3.17,3.17,0,0,1,.81.07,2.65,2.65,0,0,1-.27,0l.1.07s-.17,0-.17.1c-.2,0-.27.07-.44.07l.07.1s-.17,0-.14,0c-.14,0-.17.07-.41.1,0,0-.07,0-.07.07s-.23.1-.2.14c-.17,0-.51.1-.51.23Z"/>
        <path class="cls-3" d="M112,143.35c-.1.14-.1.48-.24.44s-.17.51-.31.51c-.34.21-.27,1.13-.41,1.27a9,9,0,0,1-4.81,3.37,1.27,1.27,0,0,1-.47.07c-.35,0-.48-.2-.79-.2-.1,0-.31-.07-.41-.07s0,.07-.07.07-.1-.07-.2-.07h-.14a3.75,3.75,0,0,0-.65-.2,1.6,1.6,0,0,0,1.13.3,1.63,1.63,0,0,1,.38.1,5.3,5.3,0,0,1-1.4-.2c.06.07.24.1.27.17-.24-.07-.34,0-.44-.1a4,4,0,0,0-.69-.34v.17a5.33,5.33,0,0,1-1.84-4.06c0-2.9,2.83-7.17,6.18-7.17.64,0,.64.38,1.12.62,0,0,0-.07,0-.11a.13.13,0,0,1,.1,0c.21,0,.17.51.24.68A3,3,0,0,1,109,140c0,1.09-.75,3.34-3.92,3.34a8.44,8.44,0,0,1-1.33-.13,3.46,3.46,0,0,0-.21,1.09,2,2,0,0,0,2.22,2c3.21,0,6.59-5,7.37-6.21l.27-.34c.11-.1.17-.14.21-.14s.1.17.27.24a.65.65,0,0,0-.17.34v.14a.78.78,0,0,1-.2.55c0-.07,0-.21,0-.24s-.07.1-.68,1.33c.31-.24.58-.82.58-.75s-.1.13-.1.24a2.76,2.76,0,0,0,.47-1s0,.1,0,.1c0,.17,0,.1,0,.2s-.07.28-.07.38c0,.82-1.46,2.8-2.49,4.06a.47.47,0,0,1,0-.17,1.15,1.15,0,0,1,.17-.65s.1,0,.1.1a17.23,17.23,0,0,0,1.54-2.32l.2-.2a1.31,1.31,0,0,0,.14-.38c-.14.17-.58.55-.58.82s-.31.27-.68,1c0,0-.07-.1-.07-.14A.1.1,0,0,0,112,143.35Zm-6.45-3.79a7.3,7.3,0,0,0-1.4,2.25c.51-.37,2.83-1.46,3.18-2.86a1,1,0,0,0-.35,0A2.43,2.43,0,0,0,105.57,139.56Zm.79-1.81a1.73,1.73,0,0,0-.89.48,2.87,2.87,0,0,1,1.6-.54.22.22,0,0,0-.13,0,.28.28,0,0,1-.17,0,.13.13,0,0,0-.11,0C106.56,137.65,106.36,137.72,106.36,137.75Zm.47.07h-.17c-.07,0-.1,0-.1-.07a2.51,2.51,0,0,0-.75.34,1.67,1.67,0,0,0,.58-.2c.1,0,.17,0,.24,0S106.83,137.86,106.83,137.82Zm-.06-.31c0,.07-.28,0-.24.11l.58-.11a.51.51,0,0,0-.21,0C106.83,137.48,106.8,137.48,106.77,137.51Zm1.7,1.13s0,.61.14.55v-.28c.07.11.1.31.2.38A1.28,1.28,0,0,0,108.47,138.64Zm3.72,4.16c0-.17.17-.27.24-.41a1.26,1.26,0,0,0-.41.72s-.24.34-.34.48a1.92,1.92,0,0,0,.31-.75.13.13,0,0,0,0-.11c-.2.24-.31.86-.51.86-.07.17-.21.27-.21.48,0,0,.11-.07.18-.11s-.07.14-.14.21c.14-.07.17-.34.37-.34,0-.14.35-.48.38-.48s.14-.14.14-.27S112.19,142.94,112.19,142.8Zm.55-1c0-.14.41-.65.47-.82-.3.34-.88.82-.88,1.43,0,0,.13-.27.2-.27s0,0,0,.1C112.63,142.05,112.6,141.92,112.74,141.78Z"/>
        <path class="cls-3" d="M122,141.75c-.78,1.53-3.82,5.93-7.44,6.1h-.23a3.07,3.07,0,0,1-3.28-3v-.2c0-2.87,2-6.28,5.43-6.45h.13c.82,0,1.47.27,1.47,1.09,0,1.5-2.7,2.69-4.06,2.69l-.31,0a4,4,0,0,0-.48,1.77c0,.86.41,1.61,1.81,1.61,2.49,0,4.3-2.6,5.67-4.57a11.69,11.69,0,0,1,2.55-3v.45a1,1,0,0,0,0,.2,1.17,1.17,0,0,1-.07.41C123.21,139.87,122.53,140.65,122,141.75Zm-7.67-.82a2.93,2.93,0,0,0,2.28-1.37,3.33,3.33,0,0,0-.54-.07C115.19,139.53,114.75,140.21,114.31,140.93Z"/>
        <path class="cls-3" d="M126.35,146.59c0-1.6.44-3.86.44-5,0-.34,0-.58-.17-.61a29,29,0,0,0-3.92,6.65c-.21.58-.55.89-.92.89a1.21,1.21,0,0,1-.79-.41c-.71-.31-1.19,0-1.36-.65a46.84,46.84,0,0,1,1.09-8.22c.24-1,1.16-.75,1.91-1a.86.86,0,0,1,1.43.64v.14c-.17.95-.64,3.17-.88,4.26.54-.81,1.84-3.37,3.48-4a2.41,2.41,0,0,1,.92-.14c1,0,2.18.31,2.49,1a4.89,4.89,0,0,1,.2,1.61c0,1.67-.3,4-.3,4.84,0,.2,0,.31.06.31.48,0,2.87-2.83,5-5.73a.43.43,0,0,1,.34-.24c.34,0,.58.71.58,1.09,0,.1,0,.17,0,.2-1.33,2.39-4.88,6.76-7.37,6.76C126.86,149,126.35,148.16,126.35,146.59Z"/>
        <path class="cls-3" d="M145.93,143.86a5.07,5.07,0,0,0-.17.51l-.1.14s-.17.1-.17.2-.38.41-.44.55-.11.2-.14.17a1.77,1.77,0,0,1-.24.34s-1.06,1.3-1.19,1.37a.74.74,0,0,0-.41.3c-.34.41-.55.38-1.06.62a2.48,2.48,0,0,1-.72.07,1.59,1.59,0,0,1-.37.06c-2.12,0-2.15-3.58-2.15-4.94,0-.65,0-1.27.07-1.78a.9.9,0,0,0-.14.34c-.51,1.71-2.25,4.92-2.73,4.85-.24.24-.27.44-.51.58a1.38,1.38,0,0,1-.55.1,1.45,1.45,0,0,1-.88-.27,1.64,1.64,0,0,1-.69-1.47c.17-2.8,2-7,4.75-8.29a2.05,2.05,0,0,1,.81-.17c.31,0,2,.31,2,.75a.41.41,0,0,1,0,.14.49.49,0,0,1-.34.13c0,.21.13.17.13.34a2.31,2.31,0,0,0-.07.48v.24c0,.07,0,.14,0,.24V141c0,2.35.07,6.07.41,6.1.58.07,4.23-4.23,5.53-6.45,0,0,.27-.61.58-.61.13,0,.37.54.41.65a1.42,1.42,0,0,1,0,.34,2.18,2.18,0,0,1-.17.75l-.14.31c-.27.06,0,.17-.3.44,0,.07-.52.78-.69,1,0,0-.13.17-.13.14a1.54,1.54,0,0,1,.34-.62s.07,0,.1-.1l.1-.17a.1.1,0,0,1,0-.1c0,.06-.1.06-.14.13s0,.07-.07.07l-.3.44a3.91,3.91,0,0,0-.52.76S145.86,143.83,145.93,143.86ZM135.36,146c1.29-2.35,2.25-4.23,3.58-6.65a2.14,2.14,0,0,1,.61-.92c-1.67.82-3.78,5.83-4.3,7.61A.32.32,0,0,0,135.36,146Zm2.35-3.51c.14-.1.17-.2.14-.2s-.11.06-.24.17-.31.2-.31.41c0-.07.17-.11.21-.11S137.64,142.6,137.71,142.53Zm0-.34c0-.07-.07.14-.14.27.1,0,.38-.24.38-.44C137.92,142.09,137.71,142,137.68,142.19Zm.13.54s.07-.1.14-.1a.41.41,0,0,0,0-.1A.36.36,0,0,0,137.81,142.73Zm.28-.13-.24.2A.46.46,0,0,0,138.09,142.6Zm.2-1.4.07-.2s-.17.2-.24.2a1.65,1.65,0,0,0-.2.48s.1-.07.13-.07A1.09,1.09,0,0,0,138.29,141.2Zm.48-.85-.1.13s.13-.06.2-.2S138.8,140.38,138.77,140.35ZM145,144.1c0-.14.21-.17.21-.31s0-.07,0-.1c-.17,0-.13.17-.17.2s-.07.18-.07.14c-.17,0-.37.68-.37.68s.24-.27.34-.37S145,144.2,145,144.1Zm-.2,1.23A.67.67,0,0,0,145,145c0-.07.1-.1.1-.27-.07.2-.24.27-.34.55,0,0,0,.06.07.1s-.11,0-.11.17Zm.24-.82,0,.1c.14-.07.17-.17.24-.27s.07-.07.07-.1,0-.07-.07-.11a2.75,2.75,0,0,0-.44.52c.07.06.07.1.07.1S145,144.51,145.05,144.51Zm.47-1.37h-.13s0,.11,0,.14a2.74,2.74,0,0,0,.38-.31h-.17C145.56,143,145.52,143,145.52,143.14Z"/>
      </g>
    </g>
    <text class="cls-4" transform="translate(59.21 163.93)">natu<tspan class="cls-5" x="20.69" y="0">r</tspan><tspan x="26.16" y="0">al</tspan><tspan class="cls-6" x="35.81" y="0">l</tspan><tspan class="cls-7" x="39.85" y="0">y mo</tspan><tspan class="cls-8" x="58.82" y="0">r</tspan><tspan x="63.99" y="0">occan</tspan></text>
    <path class="cls-9" d="M83.87,101.61l.31,0c0-.07,0-.14,0-.2a1.73,1.73,0,0,0,.12-.69,1.36,1.36,0,0,0-.81-.88C83.23,101,83.29,101.31,83.87,101.61Z"/>
    <path class="cls-10" d="M118.42,101.08h0a1.72,1.72,0,0,0,.78-.79,1.83,1.83,0,0,0,0-.84A1.58,1.58,0,0,0,118.42,101.08Z"/>
    <path class="cls-11" d="M110.33,102.27a3.41,3.41,0,0,0-1.56-.64,3.37,3.37,0,0,0-.62.07l0,.14A2.7,2.7,0,0,0,110.33,102.27Z"/>
    <path class="cls-12" d="M125.9,112.3l.74-.45c.44-.32.16-.08.6-.41-.08,0-.18,0-.24,0a3.35,3.35,0,0,1-2.7.46,13.16,13.16,0,0,0-1.72-.41c-.26-.05-1.45-.2-1.72-.26-.72-.36,1.16-1.69,1.44-2l-.08-.07a3.88,3.88,0,0,0-.48.3c-.44.35-.86.72-1.29,1.08a4.26,4.26,0,0,1-2.22.74c-.09,0-.21-.09-.28-.16a10.31,10.31,0,0,0-.65-.83l-.22.16c.09.07.18.15.27.21h0c.39.47.34.76-.23.91a9.61,9.61,0,0,1-1.74.45,13,13,0,0,0-2.25.72c-.6.23-1.67.95-2.35.58a4.23,4.23,0,0,1,.79-1.82,9.93,9.93,0,0,1,3-3.57c1.36-.88,2.89-2.13,4.58-2.47a21.39,21.39,0,0,0,3.82-.87,20.46,20.46,0,0,0-2.86.39c-.11,0-2.19.34-2.31.3.06-.1.09-.24.18-.3a14.12,14.12,0,0,1,3.7-1.46c.53-.09,3.26-.25,3.77-.3a3.32,3.32,0,0,0,1.67-.55,8.21,8.21,0,0,1,1-.55,13.61,13.61,0,0,0-1.71.67c-.17,0-1.36.21-1.23.1a13.56,13.56,0,0,0,1.1-1.82c-.08.07-.4.65-.56.83-.74.85-1.12,1.12-1.83,1.12a9.79,9.79,0,0,0-5.51.93,11.66,11.66,0,0,1-1.09.57l-.07-.12a18.83,18.83,0,0,1,4-4.4,2.33,2.33,0,0,0-.74.41,7.08,7.08,0,0,0-1.07.88c0-.09-.26.25-.64.62,0,.08-.35.43-.41.51s-.18.27-.45.6c0,0-.18.22-.2.23s0-.63-.1-.65-.09.27-.11.26v.24a2.37,2.37,0,0,1-.28.73,4.57,4.57,0,0,1-1.76,2.28c-.8.59-1.63,1.11-2.37,1.75-.48.41-.67.59-.83,0a2.92,2.92,0,0,1,.07-.61c.23-.48.46-.95.71-1.42s.53-1.09.7-1.44c0,0,.11-.49.09-.54s-.82,1.63-.93,1.78c-.48.68-1,1.37-1.42,2.07a1.65,1.65,0,0,0-.2.52,2.88,2.88,0,0,1-.88,1.5c-.26.24-.53.17-.61-.16h0l-.06,0-.09,0c.1.12.08.33,0,.67a2.66,2.66,0,0,1-.61,1.12c-.92.83-1,.79-1.18.19-.3-1-.72-1.88-1-2.92a10,10,0,0,1-.23-2.25c0-.57-.08-.45.46-.61a13.86,13.86,0,0,0,2.25-1,14.58,14.58,0,0,0,2.74-2.25,13,13,0,0,1,2.57-2.58A14,14,0,0,1,117,98.69c.12-.06,1-.23,1.27-.31-.12,0-.26.05-.44,0a.5.5,0,0,1-.41-.06c-.13-.11,0-.49,0-.51-.17.55-.33.62-.8.66V98a4.53,4.53,0,0,1-.94,1,25.64,25.64,0,0,0-2.56,1.68,14.55,14.55,0,0,1-2.77,2.41,7.38,7.38,0,0,1-4.08,1.38c.16-1.26-.11-2.42.38-3.25a4.89,4.89,0,0,1,1.82-1.37,24.19,24.19,0,0,0,2.3-1.93,27.34,27.34,0,0,0,2.6-2.06c.4-.38.47-.92.81-1.46a4.94,4.94,0,0,1,1.4-1.7c-.09-.24-1.35,1-1.59,1.45a7.56,7.56,0,0,1-.9,1.55c-.22.16-1.08.91-1.37,1.11-.14.11-.38.36-.58.2a6.51,6.51,0,0,1,.1-2.1,10.43,10.43,0,0,0,.29-3.27,26.92,26.92,0,0,1-.7,3.49,4.47,4.47,0,0,1-.69,2,11.43,11.43,0,0,1-1.65,1.61,2.39,2.39,0,0,1-1.83.61c-.4-.06-.8-.19-.9-.58a3.93,3.93,0,0,0,.14-1.53,9.1,9.1,0,0,0-.33,1.31c-.58-.83-1.43-1.41-1.68-2.35a3.48,3.48,0,0,1,.06-2.27c-.1,0-.28,0-.29.1-.13.43-.23.88-.34,1.32l-.09.41c-.18,0-.41,0-.51-.13A12.4,12.4,0,0,1,101.16,94a13.14,13.14,0,0,1-.89-1.85,3,3,0,0,0-.31-.42c.21.63.44,1.26.63,1.9a4.15,4.15,0,0,0,1.14,1.56c.4.33.32.45.7.8a10.4,10.4,0,0,1,1.64,2.27c1,1.33,1.41,2.14,1.06,3.81a40.66,40.66,0,0,0-.81,5.63,5.72,5.72,0,0,0-.7-1.05,19.83,19.83,0,0,1-2-2.27,4.35,4.35,0,0,1,.13-2.81c.21-.75.63-.81.38-.81a1.8,1.8,0,0,1-.21-.53,10,10,0,0,1-.17-1.44,7.31,7.31,0,0,0-.17,2c-.08.5-.31.64-.36.88-.13.63-.22.79-.3,1.27-.2-.15-.35-.25-.48-.36a4.75,4.75,0,0,1-1.83-2.4,8.81,8.81,0,0,0-1.39-3.09A12.11,12.11,0,0,1,95.92,95c-.3-.74-.26-1.64-.42-1a2.17,2.17,0,0,0,.18,1.41,25.81,25.81,0,0,0,1.73,2.83,6.46,6.46,0,0,1,.7,2.05c.11.32-3-1.07-4.34-1.54-.78-.27-2.52-1-3.52-1.34a1.51,1.51,0,0,1-.64-.87c-.13,0,0,.63-.12.59-.7-.35-1.47-.85-2.18-1.21,0,0-.12,0-.18,0l0,.12a50.25,50.25,0,0,0,5.83,2.81,25.92,25.92,0,0,1,2.45,1.27,12,12,0,0,1,2.88,1.53c.94.82,1,1.43.93,1.74,0,0-1.12-.22-1.3-.29s-1.09-.56-1.36-.63a19.47,19.47,0,0,0-3.13-.44,18,18,0,0,1-2.42-.43,2.84,2.84,0,0,1-1-.53c-.58-.44-1.11-1-1.7-1.38-.14-.11-.42-.07-.64-.08a3.41,3.41,0,0,1-.55,0,5.8,5.8,0,0,1,1.13.39,4.88,4.88,0,0,1,1,1.16c.21.25-.66.69-1,.72l-3.38.27a9.65,9.65,0,0,0-1.25.3h0l-.22.12c1.54.05,6.43-.69,8.58.05-1,.48-1.84.54-2.15,1a10.13,10.13,0,0,1,2.46-.48,17.57,17.57,0,0,1,2.62,0,21.3,21.3,0,0,1,4.08,1.59,3.87,3.87,0,0,1,.64.33.64.64,0,0,1,.14,1.08c-.07.06-2,.72-1.59.7a7,7,0,0,0,1.89-.45c.53-.36,1-.57,1.44,0a12.64,12.64,0,0,1,.8,1.12c.28.47.82,1.19,1,1.68a10.7,10.7,0,0,1,1,3.81,3.32,3.32,0,0,1-.5-.32h0a7.9,7.9,0,0,0-4-2.27,11.19,11.19,0,0,1-3.44-1.21c-.63-.36-1.53-1.22-1.53-1.1s-.09.39-.39.29c-.74-.26-3-1.11-3.08-1.16a7.6,7.6,0,0,0-2.13-1.08c.41.43,1,.49,1.25,1a1.92,1.92,0,0,1-.68,0,4.68,4.68,0,0,0-2.32.15,6.83,6.83,0,0,1-1.47.24c-.39,0-.78.06-1.17.08v.12c.55,0,1.1,0,1.65,0a6.71,6.71,0,0,0,1.16-.15,4.48,4.48,0,0,1,2.52.33.41.41,0,0,1,.16,0,1.14,1.14,0,0,1,.37.21h.06a.29.29,0,0,1,.18.07c1.32.23,2.68.38,3.55,1.66-.67.66-1.46,1.66-2.34,1.61-.34,0-.64-.13-1.39-.24a12.52,12.52,0,0,1-1.46-.32,4.64,4.64,0,0,0-2.83-.19c-1.14.35-1.6.37-2.3.58-.39.11-1.12.41-1.74.61l-1.18.6a4.42,4.42,0,0,1,1.86-.48,6.53,6.53,0,0,1-.39.76,4.35,4.35,0,0,0,.57-.55c.35-.3.31-.41.73-.56.58-.21,1.77-.46,2.36-.65a3.38,3.38,0,0,1,1.62-.07,15.69,15.69,0,0,1,3.44,1.18,2.69,2.69,0,0,0,2.61-.16c.37-.23.71-.5,1.07-.75a2.12,2.12,0,0,1,2.42,0c.55.34,1.12.63,1.66,1,.89.58,1.8,1.15,2.64,1.8,1,1.12,1.35,1.17,2.78,2.77a4.9,4.9,0,0,1,.49,3,30.32,30.32,0,0,1-.87,3.14,7.08,7.08,0,0,1-1.68,2.32c-.29.27-1.91,1.55-1.47,1.41a3.43,3.43,0,0,1,1.59-.24c2.11-.43,2,.2,2.37.25s1.29-.83,2.35-.58a16.32,16.32,0,0,0,2.36.58,7.38,7.38,0,0,1,1.7-.59c.53-.22,1.67.28,1.92.32a1.24,1.24,0,0,0-.44-.79c-.86-.65-1-.62-1.47-1.67-.58-2.36-.2-2.18-.87-4.08-.66-1.67-.37-1.39-.28-1.79s1.22-1.25,1.69-1.74a17.29,17.29,0,0,1,2-1.67c.87-.48.78-.79,1.9-1.18a11.64,11.64,0,0,1,3.85-1c.64,0,1.14,0,2,0,1.36,0,2.11,0,3.28.08a7.5,7.5,0,0,0,1.57,0A4.37,4.37,0,0,0,128,112c.52-.25.65-.33,1.18-.58.15-.08.48-.21.52-.32C128.63,111.38,127.11,112.42,125.9,112.3Z"/>
    <path class="cls-13" d="M109.7,108.43a3.07,3.07,0,0,0-.48-2.11,3.33,3.33,0,0,0-.49-.63,4,4,0,0,0-.16.75A2.82,2.82,0,0,0,109,108a5.15,5.15,0,0,0,.69,1.06C109.71,108.84,109.7,108.63,109.7,108.43Z"/>
    <path class="cls-14" d="M108.21,109.58a2,2,0,0,0,1-.09s-.45-.22-.92-.44-.78-.51-1-.43C107.49,109.18,107.72,109.47,108.21,109.58Z"/>
    <path class="cls-15" d="M111.2,98.74a1.74,1.74,0,0,0-.27,1.53,6,6,0,0,0,.48,1.24,6.9,6.9,0,0,0,.18-.68S111.9,99.27,111.2,98.74Z"/>
    <path class="cls-16" d="M112.4,105.06a3.76,3.76,0,0,0-.11-.82,2.6,2.6,0,0,0-.28-1s-.39,1.91.2,2.57C112.24,105.61,112.38,105.34,112.4,105.06Z"/>
    <path class="cls-17" d="M113.35,103.23a7.36,7.36,0,0,0,0-.92,1.6,1.6,0,0,0-.54,2l.15.28A3.3,3.3,0,0,0,113.35,103.23Z"/>
    <path class="cls-18" d="M114.91,104a2.12,2.12,0,0,0,1.11-.7,1.2,1.2,0,0,0-1.51.33,6,6,0,0,0-.59.89C114.19,104.46,114.6,104.16,114.91,104Z"/>
    <path class="cls-19" d="M117.87,101.33a1.86,1.86,0,0,0-.38-1.2c0,.5-.15.66-.16,1.14a3.53,3.53,0,0,0,.22,1h0A1.66,1.66,0,0,0,117.87,101.33Z"/>
    <path class="cls-20" d="M116.09,109.11a1.9,1.9,0,0,0-.84-.38,3.31,3.31,0,0,0,.17.56,1.51,1.51,0,0,0,1.4.87A4.79,4.79,0,0,0,116.09,109.11Z"/>
    <path class="cls-21" d="M94.81,107.4a2.41,2.41,0,0,0,.5-2,.56.56,0,0,0-.31-.33s0,0,0,0S94.22,107,94.81,107.4Z"/>
    <path class="cls-22" d="M116.31,104.35c-.36-.08-.26-.26-.93-.09h0a10.69,10.69,0,0,0-1.54.71A2.51,2.51,0,0,0,116.31,104.35Z"/>
    <path class="cls-23" d="M109.28,109.06a9,9,0,0,1-.52-1.17,2.88,2.88,0,0,0-.57-.83,1.2,1.2,0,0,0-.28-.31,2.58,2.58,0,0,0,.27,1.56A1.62,1.62,0,0,0,109.28,109.06Z"/>
    <path class="cls-24" d="M83.22,102.36c-.28-.08-.5-.14-.71-.22a4.09,4.09,0,0,0-2-.27c-.29,0-.6,0-.75.5A18.41,18.41,0,0,0,83.22,102.36Z"/>
    <path class="cls-25" d="M83.51,107.74c-.26-.37-.37-.49-.71-.49a4,4,0,0,0-1.57.41,6.29,6.29,0,0,0,1.52.29A1.39,1.39,0,0,0,83.51,107.74Z"/>
    <path class="cls-26" d="M83.4,108.13c-.29.08-.74.29-1,.37a12,12,0,0,0-1.33.58.36.36,0,0,0-.09.31s.19.11.29.09A3.09,3.09,0,0,0,83.79,108Z"/>
    <path class="cls-27" d="M121.36,106.32s-.15-.26-.74-.38-.58,0-1-.15a2.14,2.14,0,0,0,2.06,1,1.6,1.6,0,0,0,.23,0Z"/>
    <path class="cls-28" d="M121.44,105.41a1.27,1.27,0,0,0,.79,1c.18,0,.61.32.79.36C123.06,105.91,122.68,105.57,121.44,105.41Z"/>
    <path class="cls-29" d="M124.27,108.2a1.45,1.45,0,0,0,.43-.92,5.16,5.16,0,0,0-1,.14c-.33.11-.62.4-.48.75A.78.78,0,0,0,124.27,108.2Z"/>
    <path class="cls-30" d="M129.58,102.24a1.45,1.45,0,0,0,.7-.74,4.39,4.39,0,0,0-.95-.16c-.36,0-.73.19-.71.56A.78.78,0,0,0,129.58,102.24Z"/>
    <path class="cls-31" d="M125.89,108.39a3.41,3.41,0,0,0-1.22.41c.22.09.43.2.65.3a1.55,1.55,0,0,0,1.8-.52C126.84,108.56,126.18,108.38,125.89,108.39Z"/>
    <path class="cls-32" d="M84.54,103a2.36,2.36,0,0,0-.73,1.24c.5,0,1-.74,1.21-1.55C84.9,102.8,84.74,102.85,84.54,103Z"/>
    <path class="cls-33" d="M116.49,92.28a4.2,4.2,0,0,1,2.37.25,1.17,1.17,0,0,1,.24.21c-.1,0-.2.13-.3.13A3.29,3.29,0,0,1,116.49,92.28Z"/>
    <path class="cls-34" d="M130.77,111c.07,0,1-.27,1.54-.38a3,3,0,0,1,1.74.32,2.92,2.92,0,0,1-1.91.33C131.82,111.21,131.09,111,130.77,111Z"/>
    <path class="cls-35" d="M97.11,96.37c0-1.14-.13-2.22.65-3.05C98.4,94,98.07,94.88,97.11,96.37Z"/>
    <path class="cls-36" d="M106.16,97.39c.38-.53.71-1,1.42-1.09C107.65,96.69,107.05,97.15,106.16,97.39Z"/>
    <path class="cls-37" d="M100,107.82c-.06-.23-.11-.47-.16-.71h-.09a1.51,1.51,0,0,1-.15.37,2.71,2.71,0,0,0-.31,2.23c0,.13.17.23.26.34.09-.09.23-.15.29-.26A2.69,2.69,0,0,0,100,107.82Z"/>
    <path class="cls-38" d="M118.29,93.88c-.4.33-1.61-.12-2.12-.8C116.82,92.94,118.13,93.39,118.29,93.88Z"/>
    <path class="cls-39" d="M118.35,88.3a3.36,3.36,0,0,1-1.5,2.8C116.73,90.05,117.63,88.37,118.35,88.3Z"/>
    <path class="cls-40" d="M81,112.65a5.62,5.62,0,0,1-2.87,1.78,5,5,0,0,1,1.33-1.29A11.21,11.21,0,0,1,81,112.65Z"/>
    <path class="cls-41" d="M122.8,105.3a3.83,3.83,0,0,1,2,.9.88.88,0,0,1,.16.32,1.31,1.31,0,0,1-.39,0A2.81,2.81,0,0,1,122.8,105.3Z"/>
    <path class="cls-42" d="M124.82,112.65a17.11,17.11,0,0,1,1.76.69,2.41,2.41,0,0,1,.77.83C127,114.53,125,113,124.82,112.65Z"/>
    <path class="cls-43" d="M101.12,92.41a2.54,2.54,0,0,1,.29-2.41,3.62,3.62,0,0,1,.48-.63,1.94,1.94,0,0,1,.17.55A3.28,3.28,0,0,1,101.12,92.41Z"/>
    <path class="cls-44" d="M88.46,107.73a2.68,2.68,0,0,1-1,1.53,2.16,2.16,0,0,1-.47.16c-.1-.21.14-.6.22-.7a2.34,2.34,0,0,1,1.16-1Z"/>
    <path class="cls-45" d="M131,103.2c-.46.45-1.93.28-3.21-.34A4.21,4.21,0,0,1,131,103.2Z"/>
    <path class="cls-46" d="M113.7,92.49c.29,0,.38.14.24.23a2.56,2.56,0,0,1-2,.48A6.75,6.75,0,0,1,113.7,92.49Z"/>
    <path class="cls-47" d="M118.84,107.43a4.37,4.37,0,0,1,.14.71,3.18,3.18,0,0,1-1,2.14A2.74,2.74,0,0,1,118.84,107.43Z"/>
    <path class="cls-48" d="M88.88,103.24A3.51,3.51,0,0,1,90,106.17C89.08,105.6,88.35,103.75,88.88,103.24Z"/>
    <path class="cls-49" d="M81.37,112.06a3.79,3.79,0,0,1-3.3.1C78.49,111.5,79.75,111.47,81.37,112.06Z"/>
    <path class="cls-50" d="M85.89,107.89a1.66,1.66,0,0,1-.9,1.81C84.59,109.2,85,108.51,85.89,107.89Z"/>
    <path class="cls-51" d="M114.35,90a3.82,3.82,0,0,1-2.25,1.76,3.84,3.84,0,0,1,.83-1.11S114.34,89.78,114.35,90Z"/>
    <path class="cls-52" d="M111.53,90.73a3.08,3.08,0,0,1-1-2.18,8.79,8.79,0,0,1,.13-1,3.61,3.61,0,0,1,.53.58A7,7,0,0,1,111.53,90.73Z"/>
    <path class="cls-53" d="M127.33,112.76a12,12,0,0,1,1.17.48,2.31,2.31,0,0,1,.52.47,1,1,0,0,1,.13.34,2.58,2.58,0,0,1-.57-.18c-.69-.25-1-.35-1.3-1Z"/>
    <path class="cls-54" d="M91.85,97.34a3.19,3.19,0,0,1-.62-3.12A3.24,3.24,0,0,1,91.85,97.34Z"/>
    <path class="cls-55" d="M127,101a2.59,2.59,0,0,1,1.24-.62,1.25,1.25,0,0,1,.75.25,5.61,5.61,0,0,1-.79.37C127.77,101.1,127.52,101.38,127,101Z"/>
    <path class="cls-56" d="M119.44,102c1.25-.9,2.63-1.2,3.14-.7A3.56,3.56,0,0,1,119.44,102Z"/>
    <path class="cls-57" d="M86.81,99.21a3.71,3.71,0,0,1-2.61-1,3.79,3.79,0,0,1-.51-.47,3.8,3.8,0,0,1,.75,0,2.74,2.74,0,0,1,1.73.94A5,5,0,0,0,86.81,99.21Z"/>
    <path class="cls-58" d="M121.24,96.82A3.76,3.76,0,0,1,118.29,98C118.59,97.25,120.58,96.41,121.24,96.82Z"/>
    <path class="cls-59" d="M95.45,90.26a3.19,3.19,0,0,1,.16,3C95,92.32,94.86,90.53,95.45,90.26Z"/>
    <path class="cls-60" d="M124.39,99.85a3.72,3.72,0,0,1-3.14.7C122.12,99.74,123.79,99.32,124.39,99.85Z"/>
    <path class="cls-61" d="M125.88,103.57a4.17,4.17,0,0,1,2.31,1.05,2.7,2.7,0,0,1,.32.58,1.85,1.85,0,0,1-.67,0,3.62,3.62,0,0,1-1.86-1.35,1.08,1.08,0,0,1-.11-.18S125.88,103.59,125.88,103.57Z"/>
    <path class="cls-62" d="M95.2,94.91a2.63,2.63,0,0,1-2.33-.79,3.64,3.64,0,0,1-.52-.7,3.85,3.85,0,0,1,.92.19,6.58,6.58,0,0,1,1.34.82C94.82,94.57,95,94.75,95.2,94.91Z"/>
    <path class="cls-63" d="M105.74,97.09a1.42,1.42,0,0,1-.9-1,1.93,1.93,0,0,1-.06-.49,2.28,2.28,0,0,1,.4.35,4.28,4.28,0,0,1,.42.77A2.7,2.7,0,0,1,105.74,97.09Z"/>
    <path class="cls-64" d="M88.29,99.41a3,3,0,0,1-1.48-2,3.35,3.35,0,0,1,0-.71,2.57,2.57,0,0,1,.52.4,2.22,2.22,0,0,1,.83,1.41C88.18,98.76,88.23,99.07,88.29,99.41Z"/>
    <path class="cls-65" d="M99.31,89.71a3.71,3.71,0,0,1-1.42-2.54c0-.09,0-.27.1-.28a.5.5,0,0,1,.33.1,3.55,3.55,0,0,1,1,2.14C99.29,89.31,99.29,89.48,99.31,89.71Z"/>
    <path class="cls-66" d="M117.43,91c.65-.71,1.18-1.55,2.2-1.8a1.68,1.68,0,0,1,.5,0,1.62,1.62,0,0,1-.2.42A4,4,0,0,1,117.43,91Z"/>
    <path class="cls-67" d="M104.21,93.89c.29-1.33,1.16-2.51,1.81-2.56C106.3,92,105.37,93.29,104.21,93.89Z"/>
    <path class="cls-68" d="M99.25,90.39a3.06,3.06,0,0,1-2-.76,5.5,5.5,0,0,1-.62-.56c-.06-.07,0-.21-.07-.32a.86.86,0,0,1,.34-.07,4,4,0,0,1,1.88,1.15C98.93,90,99.06,90.17,99.25,90.39Z"/>
    <path class="cls-69" d="M85.4,94.14A3.79,3.79,0,0,1,83,92.46a.4.4,0,0,1,0-.29.66.66,0,0,1,.38,0A3.63,3.63,0,0,1,85,93.5C85.08,93.71,85.23,93.9,85.4,94.14Z"/>
    <path class="cls-70" d="M100.17,91.6a2.56,2.56,0,0,1-.08-1.33c.11-.7.45-1.15,1-1a2.66,2.66,0,0,1-.6,1.84c-.22.35-.29.32-.32.55Z"/>
    <path class="cls-71" d="M93.43,95.91c1.54-.31,2.06.58,2.8,1.13A2.86,2.86,0,0,1,93.43,95.91Z"/>
    <path class="cls-72" d="M90.66,110.6a4.18,4.18,0,0,1-.87-2.35,5.75,5.75,0,0,1,.78,1.39A4.48,4.48,0,0,1,90.66,110.6Z"/>
    <path class="cls-73" d="M85.34,112.73a3.71,3.71,0,0,1,2.48-1.54,2.49,2.49,0,0,1-.23.37C87,112.4,85.82,113.05,85.34,112.73Z"/>
    <path class="cls-74" d="M82.19,102.94l.49-.18c0,.66-1,1.52-2.11,1.42a.39.39,0,0,1-.21,0,.22.22,0,0,1,0-.18A8.77,8.77,0,0,1,82.19,102.94Z"/>
    <path class="cls-75" d="M88.8,111.63a2.64,2.64,0,0,1,2,1.22,2.89,2.89,0,0,1,.27.56c0,.15-.87,0-1.52-.78C89.33,112.34,89.09,112,88.8,111.63Z"/>
    <path class="cls-76" d="M95.08,107.42c.1-.1.81-1.41,1.83-1.47a1.26,1.26,0,0,1-.69,1.12,2.13,2.13,0,0,1-.49.21l-.65.13Z"/>
    <path class="cls-77" d="M115.9,110.27a9.38,9.38,0,0,0-1.23.32c.22.19.35.32.49.43.44.35,1.45.41,1.53-.07S116.18,110.23,115.9,110.27Z"/>
    <path class="cls-78" d="M110.81,101.11a.79.79,0,0,1,.35.8,2.72,2.72,0,0,1-1.18-.38,3.86,3.86,0,0,1-.62-.81A4.61,4.61,0,0,1,110.81,101.11Z"/>
    <path class="cls-79" d="M104.15,99.71a1.69,1.69,0,0,1-1.07,1.08.55.55,0,0,1-.66-.25c-.16-.23,0-.38.14-.54C103,99.51,103.55,99.77,104.15,99.71Z"/>
    <path class="cls-80" d="M98,108.88c-.37-.88,0-1.61.87-1.69C99.23,108,99.08,108.3,98,108.88Z"/>
    <path class="cls-81" d="M117.08,107.66c.33.44.63.84.51,1.35,0,.19-.25.45-.42.47a.63.63,0,0,1-.52-.34A1.38,1.38,0,0,1,117.08,107.66Z"/>
    <path class="cls-82" d="M115.9,95.83a1.4,1.4,0,0,1,.87,1.25.49.49,0,0,1-1,.18A2,2,0,0,1,115.9,95.83Z"/>
    <path class="cls-83" d="M99,96.08c0,.55.06,1.09-.42,1.45a.76.76,0,0,1-.59.08c-.24-.1-.3-.33-.19-.6A1.55,1.55,0,0,1,99,96.08Z"/>
    <path class="cls-84" d="M92.91,105.61c1.08.28,1.33,1.21,1.73,2A2.63,2.63,0,0,1,92.91,105.61Z"/>
    <path class="cls-85" d="M101.66,98.31c.3-.94.58-.92,0-1.58a.46.46,0,0,0-.35-.17s0,0,0,0S101.07,98.2,101.66,98.31Z"/>
    <path class="cls-86" d="M102.22,99c0-.1,0-1.3.77-1.82a.92.92,0,0,1,0,1.05,2.07,2.07,0,0,1-.28.38,5.34,5.34,0,0,0-.44.39Z"/>
    <path class="cls-87" d="M99.86,97.68c1,.21,1.21.93,1.58,1.54A2.2,2.2,0,0,1,99.86,97.68Z"/>
    <path class="cls-88" d="M111.75,90.86c-.14-.81.35-1.08.82-1.44.29-.26.37,0,.22.49A2,2,0,0,1,111.75,90.86Z"/>
    <path class="cls-89" d="M118.33,98.44a1.49,1.49,0,0,1,1.1,0,.78.78,0,0,1,.2.16.74.74,0,0,1-.24.11A2.24,2.24,0,0,1,118.33,98.44Z"/>
    <path class="cls-90" d="M131.35,111.4c-.37-.19-.53-.32-.89-.19-.19.07-.25.32-.25.57,0,.4,1.19.6,1.75,0C131.75,111.64,131.55,111.51,131.35,111.4Z"/>
    <path class="cls-91" d="M120.73,109.93c.15-.47,0-1,.14-1.36a2.73,2.73,0,0,1,.73-1.17,2.61,2.61,0,0,1,.2.5A2,2,0,0,1,120.73,109.93Z"/>
    <path class="cls-92" d="M127.6,111.31a4.14,4.14,0,0,1,1.17-1,6.13,6.13,0,0,1,1.22-.45c-.46.64-.57.89-1.23,1.09-.37.1-.79.21-1.16.33Z"/>
    <path class="cls-93" d="M124.4,110.76a1.32,1.32,0,0,1-1.53-.11c-.13-.14-.25-.5-.18-.56.13-.36.46-.26.65-.21a2.34,2.34,0,0,1,.7.49A3.53,3.53,0,0,1,124.4,110.76Z"/>
    <path class="cls-94" d="M90,106.28c.22-.62.42-1.25.67-1.87a2.07,2.07,0,0,1,.41-.52C91.56,104.92,91.31,105.47,90,106.28Z"/>
    <path class="cls-95" d="M109.8,95.92c.09.11-1.74-.2-2-.87l.72.18a2.3,2.3,0,0,1,.32.15A5,5,0,0,1,109.8,95.92Z"/>
    <path class="cls-96" d="M93.22,92.7a1.24,1.24,0,0,1,1.52.38.57.57,0,0,1,0,.52c0,.11-.31.15-.47.15C93.58,93.74,93.55,93.09,93.22,92.7Z"/>
    <path class="cls-97" d="M98.85,94.18a1.88,1.88,0,0,1-1.31,2.33l1.15-2.39Z"/>
    <path class="cls-98" d="M108.19,97.18a1.63,1.63,0,0,1,.83-1,.73.73,0,0,1,.9.19c.09.21-.22.68-.55.73A10.71,10.71,0,0,1,108.19,97.18Z"/>
    <path class="cls-99" d="M85.1,100.23a1.74,1.74,0,0,1,1.55-.65c.1,0,.71.33.63.4a2.61,2.61,0,0,1-1.28.35A2.67,2.67,0,0,1,85.1,100.23Z"/>
    <path class="cls-100" d="M97.13,92.6a1.32,1.32,0,0,1-.3,1.5c-.28.22-.5.16-.62-.17C96,93.31,96.37,92.77,97.13,92.6Z"/>
    <path class="cls-101" d="M81.59,110c.31.3.5.18.78.51a1.41,1.41,0,0,1,.3,1.1c-.08.21-.42.18-.49.14a1.67,1.67,0,0,1-.55-.54,1.55,1.55,0,0,1-.1-1.18Z"/>
    <path class="cls-102" d="M109.9,95.51a3.1,3.1,0,0,1-.62-1.6,3,3,0,0,1,0-.39,2.5,2.5,0,0,1,1,2.17S110,95.6,109.9,95.51Z"/>
    <path class="cls-103" d="M109.59,92.06a1.27,1.27,0,0,1,1.36.73.65.65,0,0,1-.13.53c-.08.09-.35.05-.51,0C109.91,93.17,109.68,92.74,109.59,92.06Z"/>
    <path class="cls-104" d="M119.17,91.26a1.27,1.27,0,0,1-1.39.67.66.66,0,0,1-.37-.4c0-.12.15-.32.29-.41C118.05,90.88,118.54,91,119.17,91.26Z"/>
    <path class="cls-105" d="M112.07,100.37a2.56,2.56,0,0,1,1.13-1.19,1.23,1.23,0,0,1,.39-.07,3,3,0,0,1-.28.63c-.44.54-.6.87-1.33,1.09C111.87,100.86,112,100.5,112.07,100.37Z"/>
    <path class="cls-106" d="M92.55,101.18a10.9,10.9,0,0,1,.06-1.17.64.64,0,0,1,.67-.5c.27.08.4.55.25.86A1.41,1.41,0,0,1,92.55,101.18Z"/>
    <path class="cls-107" d="M97.47,105.13c.42.06.81.08,1.18.17s.54.5.45.7a.7.7,0,0,1-.91.16A1.4,1.4,0,0,1,97.47,105.13Z"/>
    <path class="cls-108" d="M88.46,110.12A10.37,10.37,0,0,1,88.3,109c0-.33.33-.65.56-.62a.67.67,0,0,1,.41.81A1.41,1.41,0,0,1,88.46,110.12Z"/>
    <path class="cls-109" d="M86.87,105.29c.26.32.53.6.74.92a.62.62,0,0,1-.17.81.69.69,0,0,1-.77-.49A1.38,1.38,0,0,1,86.87,105.29Z"/>
    <path class="cls-110" d="M100.18,106.88a2.89,2.89,0,0,1,1.08,1.52,1.23,1.23,0,0,1-.08.49,1.41,1.41,0,0,1-.41-.25A2.21,2.21,0,0,1,100.18,106.88Z"/>
    <path class="cls-111" d="M87.21,93.61a12.22,12.22,0,0,1,.48,1.22.46.46,0,0,1-.4.62c-.19,0-.48-.28-.56-.49C86.55,94.48,86.83,94.08,87.21,93.61Z"/>
    <path class="cls-112" d="M94.65,98.24c.47-.64,1-.88,1.41-.73.18.07.42.25.45.41a.43.43,0,0,1-.47.48C95.61,98.39,95.18,98.3,94.65,98.24Z"/>
    <path class="cls-113" d="M127.4,109.76a2,2,0,0,1-.23,1.26.58.58,0,0,1-.7.31.62.62,0,0,1-.32-.75C126.32,110.06,126.84,109.91,127.4,109.76Z"/>
    <path class="cls-114" d="M101.94,93.46a1.65,1.65,0,0,1,1.31.64.55.55,0,0,1,0,.79.45.45,0,0,1-.69-.16C102.33,94.35,102.17,93.94,101.94,93.46Z"/>
    <path class="cls-115" d="M89,99.7a7.83,7.83,0,0,1,.49-.81,1.31,1.31,0,0,1,.82-.63c.27-.11,0,.6-.13.84S88.81,99.7,89,99.7Z"/>
    <path class="cls-116" d="M85.74,96.47c.27.39.53.7.73,1a.49.49,0,0,1-.25.7c-.11,0-.38-.1-.52-.22C85.33,97.69,85.33,97.1,85.74,96.47Z"/>
    <path class="cls-117" d="M127.67,107.39a3.05,3.05,0,0,1-2.51.51C125.83,107.25,127.15,106.93,127.67,107.39Z"/>
    <path class="cls-118" d="M92.28,97.8a1.49,1.49,0,0,1,.14-1.3c.13-.15.43-.32.54-.27a.7.7,0,0,1,.31.54A1.14,1.14,0,0,1,92.28,97.8Z"/>
    <path class="cls-119" d="M105.45,93.9c-.11.52-.19,1-.68,1.27-.16.08-.53.08-.59,0a.78.78,0,0,1,0-.62A1.32,1.32,0,0,1,105.45,93.9Z"/>
    <path class="cls-120" d="M124.09,114.7a1.22,1.22,0,0,1-.91-1.2.66.66,0,0,1,.34-.45c.11,0,.37.11.47.25C124.26,113.66,124.26,113.91,124.09,114.7Z"/>
    <path class="cls-121" d="M112.3,99.45a2.07,2.07,0,0,1,1.47-2.25,6.32,6.32,0,0,1-.21.65A8.74,8.74,0,0,1,112.3,99.45Z"/>
    <path class="cls-122" d="M88.57,93.21a2.51,2.51,0,0,1-.36,2.5A2.63,2.63,0,0,1,88.57,93.21Z"/>
    <path class="cls-123" d="M97.94,91.77a1.28,1.28,0,0,1,1.52-.27c.16.12.21.37.32.56a1.55,1.55,0,0,1-1,.16C98.41,92.1,98.21,92.13,97.94,91.77Z"/>
    <path class="cls-124" d="M99.72,90.07c-.06-.06,0-.51,0-.69a4.06,4.06,0,0,1,.21-1.16,6.2,6.2,0,0,1,.26-.81,1.65,1.65,0,0,1,.12,1.8C100.14,89.41,99.79,90,99.72,90.07Z"/>
    <path class="cls-125" d="M125.38,100.61a2.1,2.1,0,0,1,.18.37.62.62,0,0,1-.33.84c-.31.07-.62-.18-.6-.63a5.27,5.27,0,0,1,.28-1.14A2.45,2.45,0,0,1,125.38,100.61Z"/>
    <path class="cls-126" d="M83,95.82a4.63,4.63,0,0,1,.9-.29c.64-.08,1.16-.12,1.75-.17A1.92,1.92,0,0,1,83,95.82Z"/>
    <path class="cls-127" d="M103.6,93.73a5.74,5.74,0,0,1-.72-2.1c0-.09.09-.19.14-.28.09.07.22.12.27.21A3.93,3.93,0,0,1,103.6,93.73Z"/>
    <path class="cls-128" d="M115.19,92.34a2.55,2.55,0,0,1,0-2.56A2.73,2.73,0,0,1,115.19,92.34Z"/>
    <path class="cls-129" d="M84.42,113.23a1.45,1.45,0,0,1,0,.75c0,.12-.4-.29-.68-.8a1.75,1.75,0,0,1-.16-.77C83.68,112.34,84.27,112.8,84.42,113.23Z"/>
    <path class="cls-130" d="M89.67,96.33A2.39,2.39,0,0,1,89,94.06C89.56,94.24,89.92,95.47,89.67,96.33Z"/>
    <path class="cls-131" d="M100.18,93.18a2.35,2.35,0,0,1-2.32-.37A2.29,2.29,0,0,1,100.18,93.18Z"/>
    <path class="cls-132" d="M125.82,109.73a2.86,2.86,0,0,1-2.43-.51A2.37,2.37,0,0,1,125.82,109.73Z"/>
    <path class="cls-133" d="M119.58,100.78a3.46,3.46,0,0,1,.48-1.19c.38-.45.53-.63.86-.76a2.1,2.1,0,0,1-.38,1.15A3.31,3.31,0,0,1,119.58,100.78Z"/>
    <path class="cls-134" d="M129.52,104a2.65,2.65,0,0,1-2.58-.7,7,7,0,0,1,1.55.21A3.19,3.19,0,0,1,129.52,104Z"/>
    <path class="cls-135" d="M112.21,92.43c.79-.56.85-.8,1.56-1.3a1.29,1.29,0,0,1,.77-.14,1.84,1.84,0,0,1-.77.9A4,4,0,0,1,112.21,92.43Z"/>
    <path class="cls-136" d="M118.28,110.66a1.62,1.62,0,0,1,1.17-1.21c.26-.06.54-.17.61-.11s0,.18-.06.26A2.53,2.53,0,0,1,118.28,110.66Z"/>
    <path class="cls-137" d="M111.24,91.58A2.84,2.84,0,0,1,108.8,91C109.24,90.62,110.32,90.87,111.24,91.58Z"/>
    <path class="cls-138" d="M126.14,114.54c-.79.29-1.68-.58-1.89-1.89a5,5,0,0,0,.48.56A18.51,18.51,0,0,1,126.14,114.54Z"/>
    <path class="cls-139" d="M129.55,111.78a2.55,2.55,0,0,1,.44.29,2.8,2.8,0,0,0,1.26.67c.22.08.39.34.58.52a2.91,2.91,0,0,1-.72,0C130.31,113.12,129.93,112.52,129.55,111.78Z"/>
    <path class="cls-140" d="M126,100.69a2.18,2.18,0,0,1-.2-2.36A2.57,2.57,0,0,1,126,100.69Z"/>
    <path class="cls-141" d="M121.5,99.59a3.94,3.94,0,0,1,.86-1.08,3.63,3.63,0,0,1,1-.62,2.81,2.81,0,0,1-.5,1A1.9,1.9,0,0,1,121.5,99.59Z"/>
    <path class="cls-142" d="M111.61,94.15a3.35,3.35,0,0,1,1-.57,2,2,0,0,1,1-.31C113.49,94,112.68,94.34,111.61,94.15Z"/>
    <path class="cls-143" d="M119.16,95.79c0,.17,0,.38-.15.5-.41.48-.54,1.22-1.38,1.35A2.57,2.57,0,0,1,119.16,95.79Z"/>
    <path class="cls-144" d="M128,112.36a2.42,2.42,0,0,1,1.85.72,2.82,2.82,0,0,1,.27.45,2.15,2.15,0,0,1-.55-.23C128.92,113,128.53,113,128,112.36Z"/>
    <path class="cls-145" d="M83,113.41a2.4,2.4,0,0,1-1.1,2C81.6,114.94,82.07,114.06,83,113.41Z"/>
    <path class="cls-146" d="M89.9,96.2c0-.45-.08-.94-.08-1.44a2.14,2.14,0,0,1,.24-1,1,1,0,0,1,.5.66C90.8,95.46,90.85,95.3,89.9,96.2Z"/>
    <path class="cls-147" d="M85.32,107.32a2.82,2.82,0,0,1-2.33-.48C83.53,106.24,84.63,106.79,85.32,107.32Z"/>
    <path class="cls-148" d="M104.09,90.17a1.62,1.62,0,0,1-.1,2.42A6.8,6.8,0,0,1,104.09,90.17Z"/>
    <path class="cls-149" d="M89.3,106.31a3.83,3.83,0,0,1-1.92-1.1c0-.06-.07-.21,0-.25a.3.3,0,0,1,.26,0,4,4,0,0,1,.84.47A11.8,11.8,0,0,1,89.3,106.31Z"/>
    <path class="cls-150" d="M122.12,108.91a2,2,0,0,1,1-1.91A1.93,1.93,0,0,1,122.12,108.91Z"/>
    <path class="cls-151" d="M131.61,110.24c0-.06.72-.65,1.09-1a2.13,2.13,0,0,1,1.12-.42c0,.06-.3.54-.33.61C133,110.07,132.71,110.25,131.61,110.24Z"/>
    <path class="cls-152" d="M84.74,105.61c.6-.06,1.47.68,1.78,1.49A2.29,2.29,0,0,1,84.74,105.61Z"/>
    <path class="cls-153" d="M85.39,94.82A2.25,2.25,0,0,1,83,94.6,2.78,2.78,0,0,1,85.39,94.82Z"/>
    <path class="cls-154" d="M99.14,99c.35,1.08,1.69,1.08,2.43.77Z"/>
    <path class="cls-155" d="M83.88,102.83a3.08,3.08,0,0,1-1.45,2C82.22,104.26,82.68,103.65,83.88,102.83Z"/>
    <path class="cls-156" d="M83.29,101.84a4.06,4.06,0,0,1-2.27-1C81.51,100.55,82.21,100.87,83.29,101.84Z"/>
    <path class="cls-157" d="M128.5,109.73l1.24-2.08C130.23,108.34,129.44,109.56,128.5,109.73Z"/>
    <path class="cls-158" d="M81.53,112.73a3.85,3.85,0,0,1-1.44,1.89,4,4,0,0,1,.65-1.28A5.06,5.06,0,0,1,81.53,112.73Z"/>
    <path class="cls-159" d="M92.56,94.74a7.36,7.36,0,0,1,2.2.51h0c-.81.56-1.14.4-1.85-.07C92.67,95,92.52,94.79,92.56,94.74Z"/>
    <path class="cls-160" d="M97.08,90.32l2.33.55C98.87,91.2,97.47,91.37,97.08,90.32Z"/>
    <path class="cls-161" d="M127.63,100c.32-1,1.14-1.74,1.74-1.66A3,3,0,0,1,127.63,100Z"/>
    <path class="cls-162" d="M126.82,100.28a1.64,1.64,0,0,1,.77-2.32C127.55,98.84,126.78,99.44,126.82,100.28Z"/>
    <path class="cls-163" d="M125.9,111.77c-.71-.45-1.4-.82-1.54-1.7C125,110.08,125.75,111,125.9,111.77Z"/>
    <path class="cls-164" d="M116.11,91.19a1.7,1.7,0,0,1,.3-2.38,1.58,1.58,0,0,1,.1.52C116.4,90,116.25,90.56,116.11,91.19Z"/>
    <path class="cls-165" d="M81.5,111.71c-.53-.65-1.54-.51-2.08-1.2A1.65,1.65,0,0,1,81.5,111.71Z"/>
    <path class="cls-166" d="M118,95.43c0,.79-.81,1.27-.67,2.14A1.33,1.33,0,0,1,118,95.43Z"/>
    <path class="cls-167" d="M105.9,96.83c.42-.7-.09-1.55.4-2.27A1.52,1.52,0,0,1,105.9,96.83Z"/>
    <path class="cls-168" d="M88,100.34c-.76.86-1.36,1.38-2.33.72C86.38,100.53,87.33,100.86,88,100.34Z"/>
    <path class="cls-169" d="M126.44,105.13a1.72,1.72,0,0,1-2.5-.16C124.73,105.24,125.56,104.82,126.44,105.13Z"/>
    <path class="cls-170" d="M88.08,111.73c0,1.15-.6,2-1.5,2C86.94,112.93,87.8,112.53,88.08,111.73Z"/>
    <path class="cls-171" d="M109.5,95.09a1.47,1.47,0,0,1-1.14-1.9C109,93.67,108.93,94.57,109.5,95.09Z"/>
    <path class="cls-172" d="M111.06,90.89a1.52,1.52,0,0,1-1.38-1.79C110.46,89.49,110.38,90.48,111.06,90.89Z"/>
    <path class="cls-173" d="M82.73,109.85a7,7,0,0,1,.79-1.08,1.85,1.85,0,0,1,.74-.43C84.67,109.14,82.77,109.93,82.73,109.85Z"/>
    <path class="cls-174" d="M116.58,95.11a2.26,2.26,0,0,1-1-1.69C116.28,93.76,116.83,94.66,116.58,95.11Z"/>
    <path class="cls-175" d="M131.5,109.64a2.32,2.32,0,0,1-1.76,1.22A2.53,2.53,0,0,1,131.5,109.64Z"/>
    <path class="cls-176" d="M128.2,107.79a2.33,2.33,0,0,1-.38,2.1A2,2,0,0,1,128.2,107.79Z"/>
    <path class="cls-177" d="M121.36,104.43a2.9,2.9,0,0,1,2-.87C123.22,104.09,122.27,104.52,121.36,104.43Z"/>
    <path class="cls-178" d="M125.4,103.81a2.64,2.64,0,0,1-2,.83A2,2,0,0,1,125.4,103.81Z"/>
    <path class="cls-179" d="M125,102.36c-1-.17-1.15-.34-1.43-.73a1.43,1.43,0,0,1-.2-.73,2.1,2.1,0,0,1,.87.63A3,3,0,0,0,125,102.36Z"/>
    <path class="cls-180" d="M126.1,101.6a2.42,2.42,0,0,1,2.05.15C127.83,102.14,126.66,102.05,126.1,101.6Z"/>
    <path class="cls-181" d="M86.33,94.14c0-.45.44-1.86.32-1.77C87.07,92.88,87,93.55,86.33,94.14Z"/>
    <path class="cls-182" d="M85.86,94.2,85,92.34A1.39,1.39,0,0,1,85.86,94.2Z"/>
    <path class="cls-183" d="M88.35,97.25a1.24,1.24,0,0,1,.15,1.92C88.65,98.41,88.22,97.86,88.35,97.25Z"/>
    <path class="cls-184" d="M81.57,113.88c.07-.23.07-.48.14-.7s.19-.36.25-.55C82.2,113,82.08,113.47,81.57,113.88Z"/>
    <path class="cls-185" d="M83.32,113.48a1.29,1.29,0,0,1,.06,1.91C83.07,114.73,83.59,114.09,83.32,113.48Z"/>
    <path class="cls-186" d="M88.49,112.31a1.29,1.29,0,0,1-.26,1.89C88,113.5,88.65,113,88.49,112.31Z"/>
    <path class="cls-187" d="M114.08,103.56a2.2,2.2,0,0,1,.1-2.14,3.59,3.59,0,0,1,.63-.82,2.37,2.37,0,0,1,.1.64,2.75,2.75,0,0,1-.43,1.7C114.36,103.16,114.21,103.35,114.08,103.56Z"/>
    <path class="cls-188" d="M111.88,106.55c-1.06-.23-1.31-.7-1-1.84.43.22.38.53.55.83A2.68,2.68,0,0,1,111.88,106.55Z"/>
    <path class="cls-189" d="M116.77,101.72c.2.45.38.79.51,1.16a.65.65,0,0,1-.38.78c-.23,0-.56-.27-.62-.58A1.57,1.57,0,0,1,116.77,101.72Z"/>
    <path class="cls-190" d="M110.27,108.62c-.54-.17-.43-1,.48-1.8A1.21,1.21,0,0,1,111,108C110.94,108.37,110.77,108.75,110.27,108.62Z"/>
    <path class="cls-191" d="M115.25,105.4a2.18,2.18,0,0,1-2.13,1.15C113.53,105.78,114.8,105.1,115.25,105.4Z"/>
  </g>
</svg>
