<svg id="Layer_1" data-name="Layer 1" xmlns="http://www.w3.org/2000/svg" xmlns:xlink="http://www.w3.org/1999/xlink" viewBox="0 0 48.74 20.25"><defs><style>.cls-1{fill:url(#linear-gradient);}.cls-2{fill:url(#linear-gradient-2);}.cls-3{fill:url(#linear-gradient-3);}.cls-4{fill:url(#linear-gradient-4);}.cls-5{fill:url(#linear-gradient-5);}</style><linearGradient id="linear-gradient" x1="2" y1="27.06" x2="48.63" y2="27.06" gradientTransform="matrix(1, 0, 0, -1, 0, 52)" gradientUnits="userSpaceOnUse"><stop offset="0" stop-color="#c89a4f"/><stop offset="0.53" stop-color="#f3de7a"/><stop offset="0.63" stop-color="#f5f1c2"/><stop offset="0.64" stop-color="#f2eab3"/><stop offset="0.66" stop-color="#ecdd99"/><stop offset="0.68" stop-color="#e8d184"/><stop offset="0.7" stop-color="#e4c774"/><stop offset="0.73" stop-color="#e2c36a"/><stop offset="0.78" stop-color="#e1c168"/></linearGradient><linearGradient id="linear-gradient-2" x1="1.7" y1="18.45" x2="48.32" y2="18.45" xlink:href="#linear-gradient"/><linearGradient id="linear-gradient-3" x1="2.23" y1="36.06" x2="48.78" y2="36.06" gradientTransform="matrix(1, 0, 0, -1, 0, 52)" gradientUnits="userSpaceOnUse"><stop offset="0" stop-color="#2e0043"/><stop offset="0.53" stop-color="#5e2c8a"/><stop offset="0.63" stop-color="#a693c6"/><stop offset="0.73" stop-color="#564099"/><stop offset="0.77" stop-color="#562d8c"/><stop offset="1" stop-color="#2e0043"/></linearGradient><linearGradient id="linear-gradient-4" x1="2.04" y1="27" x2="48.59" y2="27" xlink:href="#linear-gradient-3"/><linearGradient id="linear-gradient-5" x1="1.73" y1="18.45" x2="48.27" y2="18.45" xlink:href="#linear-gradient-3"/></defs><path class="cls-1" d="M1.17,26.26H47.79c.53,0,1.14-2.65,1.67-2.65H2.83C2.23,23.61,1.7,26.26,1.17,26.26Z" transform="translate(-0.87 -14.62)"/><path class="cls-2" d="M.87,34.87H47.49c.53,0,1.14-2.64,1.66-2.64H2.53C1.93,32.23,1.4,34.87.87,34.87Z" transform="translate(-0.87 -14.62)"/><path class="cls-3" d="M1.4,17.27H48c.53,0,1.06-2.65,1.59-2.65H3.06C2.46,14.62,1.93,17.27,1.4,17.27Z" transform="translate(-0.87 -14.62)"/><path class="cls-4" d="M1.21,26.32H47.83c.53,0,1.06-2.64,1.59-2.64H2.87C2.27,23.68,1.74,26.32,1.21,26.32Z" transform="translate(-0.87 -14.62)"/><path class="cls-5" d="M.9,34.87H47.52c.53,0,1.06-2.64,1.58-2.64H2.56C2,32.23,1.42,34.87.9,34.87Z" transform="translate(-0.87 -14.62)"/></svg>