<svg id="Layer_1" data-name="Layer 1" xmlns="http://www.w3.org/2000/svg" xmlns:xlink="http://www.w3.org/1999/xlink" viewBox="0 0 7.49 4.68"><defs><style>.cls-1{fill:url(#New_Gradient_Swatch_1);}.cls-2{fill:url(#New_Gradient_Swatch_1-2);}.cls-3{fill:url(#New_Gradient_Swatch_1-3);}</style><linearGradient id="New_Gradient_Swatch_1" x1="0.79" y1="2.48" x2="6.96" y2="2.48" gradientUnits="userSpaceOnUse"><stop offset="0" stop-color="#c99a4f"/><stop offset="0.53" stop-color="#f3de79"/><stop offset="0.63" stop-color="#f6f2c1"/><stop offset="0.64" stop-color="#f3ebb4"/><stop offset="0.66" stop-color="#ecdc98"/><stop offset="0.68" stop-color="#e7d083"/><stop offset="0.7" stop-color="#e4c774"/><stop offset="0.73" stop-color="#e2c36b"/><stop offset="0.78" stop-color="#e1c168"/></linearGradient><linearGradient id="New_Gradient_Swatch_1-2" x1="0.75" y1="3.62" x2="6.92" y2="3.62" xlink:href="#New_Gradient_Swatch_1"/><linearGradient id="New_Gradient_Swatch_1-3" x1="0.82" y1="1.28" x2="6.98" y2="1.28" xlink:href="#New_Gradient_Swatch_1"/></defs><path class="cls-1" d="M.68,2.65H6.85c.07,0,.15-.35.22-.35H.9c-.08,0-.15.35-.22.35Z"/><path class="cls-2" d="M.64,3.79H6.81c.07,0,.15-.35.22-.35H.86c-.08,0-.15.35-.22.35Z"/><path class="cls-3" d="M.71,1.46H6.88c.07,0,.14-.35.21-.35H.93c-.08,0-.15.35-.22.35Z"/></svg>