<?xml version="1.0" encoding="utf-8"?>
<!-- Generator: Adobe Illustrator 25.0.0, SVG Export Plug-In . SVG Version: 6.00 Build 0)  -->
<svg version="1.1" xmlns="http://www.w3.org/2000/svg" xmlns:xlink="http://www.w3.org/1999/xlink" x="0px" y="0px"
	 viewBox="0 0 50 50" style="enable-background:new 0 0 50 50;" xml:space="preserve">
<style type="text/css">
	.st0{display:none;}
	.st1{display:inline;fill:url(#SVGID_1_);}
	.st2{display:inline;fill:url(#SVGID_2_);}
	.st3{display:inline;fill:url(#SVGID_3_);}
	.st4{display:inline;fill:url(#SVGID_4_);}
	.st5{display:inline;fill:url(#SVGID_5_);}
	.st6{display:inline;}
	.st7{opacity:0.85;fill:#231F20;}
	.st8{fill:url(#XMLID_6_);}
	.st9{fill:#3D5B9A;}
	.st10{fill:#FFFFFF;}
	.st11{fill:url(#XMLID_7_);}
	.st12{fill:url(#XMLID_13_);}
	.st13{fill:url(#XMLID_14_);}
	.st14{fill:#BA3A37;}
</style>
<g id="Layer_1" class="st0">
	
		<linearGradient id="SVGID_1_" gradientUnits="userSpaceOnUse" x1="2.0036" y1="27.0632" x2="48.6259" y2="27.0632" gradientTransform="matrix(1 0 0 -1 0 52)">
		<stop  offset="0" style="stop-color:#C89A4F"/>
		<stop  offset="0.53" style="stop-color:#F3DE7A"/>
		<stop  offset="0.63" style="stop-color:#F5F1C2"/>
		<stop  offset="0.64" style="stop-color:#F2EAB3"/>
		<stop  offset="0.66" style="stop-color:#ECDD99"/>
		<stop  offset="0.68" style="stop-color:#E8D184"/>
		<stop  offset="0.7" style="stop-color:#E4C774"/>
		<stop  offset="0.73" style="stop-color:#E2C36A"/>
		<stop  offset="0.78" style="stop-color:#E1C168"/>
	</linearGradient>
	<path class="st1" d="M1.17,26.26h46.62c0.53,0,1.13-2.64,1.66-2.64H2.83C2.23,23.61,1.7,26.26,1.17,26.26z"/>
	
		<linearGradient id="SVGID_2_" gradientUnits="userSpaceOnUse" x1="1.7014" y1="18.4491" x2="48.3236" y2="18.4491" gradientTransform="matrix(1 0 0 -1 0 52)">
		<stop  offset="0" style="stop-color:#C89A4F"/>
		<stop  offset="0.53" style="stop-color:#F3DE7A"/>
		<stop  offset="0.63" style="stop-color:#F5F1C2"/>
		<stop  offset="0.64" style="stop-color:#F2EAB3"/>
		<stop  offset="0.66" style="stop-color:#ECDD99"/>
		<stop  offset="0.68" style="stop-color:#E8D184"/>
		<stop  offset="0.7" style="stop-color:#E4C774"/>
		<stop  offset="0.73" style="stop-color:#E2C36A"/>
		<stop  offset="0.78" style="stop-color:#E1C168"/>
	</linearGradient>
	<path class="st2" d="M0.87,34.87h46.62c0.53,0,1.13-2.64,1.66-2.64H2.53C1.93,32.23,1.4,34.87,0.87,34.87z"/>
	
		<linearGradient id="SVGID_3_" gradientUnits="userSpaceOnUse" x1="2.2303" y1="36.0552" x2="48.777" y2="36.0552" gradientTransform="matrix(1 0 0 -1 0 52)">
		<stop  offset="6.926126e-08" style="stop-color:#2E0043"/>
		<stop  offset="0.53" style="stop-color:#5E2C8A"/>
		<stop  offset="0.63" style="stop-color:#A693C6"/>
		<stop  offset="0.73" style="stop-color:#564099"/>
		<stop  offset="0.7693" style="stop-color:#562D8C"/>
		<stop  offset="1" style="stop-color:#2E0043"/>
	</linearGradient>
	<path class="st3" d="M1.4,17.27h46.62c0.53,0,1.06-2.64,1.59-2.64H3.06C2.46,14.62,1.93,17.27,1.4,17.27z"/>
	
		<linearGradient id="SVGID_4_" gradientUnits="userSpaceOnUse" x1="2.0414" y1="27" x2="48.5881" y2="27" gradientTransform="matrix(1 0 0 -1 0 52)">
		<stop  offset="6.926126e-08" style="stop-color:#2E0043"/>
		<stop  offset="0.53" style="stop-color:#5E2C8A"/>
		<stop  offset="0.63" style="stop-color:#A693C6"/>
		<stop  offset="0.73" style="stop-color:#564099"/>
		<stop  offset="0.7693" style="stop-color:#562D8C"/>
		<stop  offset="1" style="stop-color:#2E0043"/>
	</linearGradient>
	<path class="st4" d="M1.21,26.32h46.62c0.53,0,1.06-2.64,1.59-2.64H2.87C2.27,23.68,1.74,26.32,1.21,26.32z"/>
	
		<linearGradient id="SVGID_5_" gradientUnits="userSpaceOnUse" x1="1.7267" y1="18.4491" x2="48.2733" y2="18.4491" gradientTransform="matrix(1 0 0 -1 0 52)">
		<stop  offset="6.926126e-08" style="stop-color:#2E0043"/>
		<stop  offset="0.53" style="stop-color:#5E2C8A"/>
		<stop  offset="0.63" style="stop-color:#A693C6"/>
		<stop  offset="0.73" style="stop-color:#564099"/>
		<stop  offset="0.7693" style="stop-color:#562D8C"/>
		<stop  offset="1" style="stop-color:#2E0043"/>
	</linearGradient>
	<path class="st5" d="M0.9,34.87h46.62c0.53,0,1.06-2.64,1.59-2.64H2.56C1.95,32.23,1.42,34.87,0.9,34.87z"/>
</g>
<g id="Layer_2" class="st0">
	<g id="XMLID_25_" class="st6">
		
			<ellipse id="XMLID_3_" transform="matrix(0.1661 -0.9861 0.9861 0.1661 -6.757 45.3541)" class="st7" cx="23.44" cy="26.67" rx="22.76" ry="22.76"/>
		<linearGradient id="XMLID_6_" gradientUnits="userSpaceOnUse" x1="10.3633" y1="38.3445" x2="42.5108" y2="8.5411">
			<stop  offset="0" style="stop-color:#1C3461"/>
			<stop  offset="0.5255" style="stop-color:#3D5B9A"/>
			<stop  offset="1" style="stop-color:#7392CB"/>
		</linearGradient>
		<circle id="XMLID_2_" class="st8" cx="26.56" cy="23.33" r="22.76"/>
		<circle id="XMLID_4_" class="st9" cx="26.56" cy="23.33" r="19.86"/>
		<path id="XMLID_5_" class="st10" d="M20.25,24.76c1.07,0,2.15,0,3.22-0.01c0.13,0,0.17,0.04,0.17,0.17c0,3.42,0,6.84,0,10.26
			c0,0.02,0,0.04,0,0.06h4.31c0-0.02,0-0.03,0-0.05c0-3.42,0-6.85,0-10.27c0-0.13,0.04-0.16,0.16-0.16c1.07,0,2.15,0,3.22,0.01
			c0.13,0,0.18-0.03,0.2-0.16c0.06-0.55,0.14-1.1,0.21-1.64c0.08-0.63,0.16-1.25,0.24-1.88c0.02-0.15,0.04-0.3,0.06-0.48
			c-0.08,0-0.13,0-0.19,0c-1.25,0-2.5,0-3.75,0c-0.11,0-0.16-0.03-0.16-0.15c0.01-0.95,0.01-1.9,0.02-2.86c0-0.2,0.05-0.4,0.1-0.58
			c0.16-0.56,0.57-0.86,1.12-0.96c0.33-0.06,0.67-0.08,1-0.09c0.62-0.01,1.24-0.01,1.86,0c0.12,0,0.15-0.04,0.15-0.15
			c0-1.14,0-2.28,0-3.42c0-0.14-0.06-0.16-0.18-0.17c-1.1-0.11-2.21-0.16-3.32-0.14c-1.11,0.03-2.14,0.31-3.05,0.96
			c-0.98,0.7-1.54,1.68-1.82,2.84c-0.14,0.59-0.19,1.19-0.19,1.8c0,0.91,0,1.83,0,2.74c0,0.14-0.04,0.18-0.18,0.18
			c-1.07-0.01-2.13,0-3.2,0c-0.06,0-0.11,0-0.18,0c0,0.06-0.01,0.11-0.01,0.16c0,1.28,0,2.56,0,3.84
			C20.07,24.74,20.12,24.77,20.25,24.76z"/>
	</g>
</g>
<g id="Layer_3">
	<g id="XMLID_29_">
		<circle id="XMLID_10_" class="st7" cx="23.44" cy="27.11" r="22.77"/>
		<linearGradient id="XMLID_7_" gradientUnits="userSpaceOnUse" x1="8.9624" y1="3.5727" x2="37.614" y2="36.4442">
			<stop  offset="0" style="stop-color:#FED469"/>
			<stop  offset="0.3459" style="stop-color:#EA5B45"/>
			<stop  offset="0.699" style="stop-color:#D32983"/>
			<stop  offset="1" style="stop-color:#5560AB"/>
		</linearGradient>
		<circle id="XMLID_9_" class="st11" cx="26.57" cy="23.77" r="22.77"/>
		<linearGradient id="XMLID_13_" gradientUnits="userSpaceOnUse" x1="37.5724" y1="40.5785" x2="13.1408" y2="3.2649">
			<stop  offset="0" style="stop-color:#FED469"/>
			<stop  offset="0.3459" style="stop-color:#EA5B45"/>
			<stop  offset="0.699" style="stop-color:#D32983"/>
			<stop  offset="1" style="stop-color:#5560AB"/>
		</linearGradient>
		<circle id="XMLID_8_" class="st12" cx="26.57" cy="23.77" r="19.87"/>
		<g id="XMLID_11_">
			<path id="XMLID_58_" class="st10" d="M26.57,34.81c-1.33-0.02-2.65-0.03-3.98-0.06c-0.79-0.02-1.57-0.06-2.34-0.26
				c-2.3-0.57-3.76-2-4.38-4.29c-0.17-0.64-0.24-1.29-0.26-1.95c-0.1-2.62-0.07-5.24-0.04-7.85c0.01-0.77,0.03-1.54,0.15-2.3
				c0.26-1.7,0.99-3.12,2.42-4.13c0.72-0.51,1.53-0.81,2.4-0.99c0.69-0.14,1.38-0.17,2.08-0.19c2.46-0.07,4.93-0.06,7.4-0.02
				c0.69,0.01,1.39,0.05,2.07,0.13c1.33,0.16,2.53,0.62,3.52,1.55c0.96,0.9,1.51,2.01,1.76,3.28c0.14,0.68,0.17,1.37,0.19,2.06
				c0.07,2.46,0.06,4.92,0.02,7.38c-0.01,0.7-0.05,1.41-0.13,2.11c-0.19,1.62-0.85,3.02-2.14,4.07c-0.82,0.67-1.77,1.05-2.8,1.23
				c-0.99,0.18-2,0.19-3,0.2c-0.98,0.01-1.95,0-2.93,0C26.57,34.79,26.57,34.8,26.57,34.81z M17.55,23.76c-0.01,0-0.03,0-0.04,0
				c0.02,1.34,0.04,2.68,0.06,4.03c0.01,0.62,0.05,1.23,0.19,1.83c0.21,0.92,0.66,1.7,1.43,2.27c0.55,0.41,1.18,0.62,1.84,0.74
				c0.65,0.12,1.31,0.14,1.96,0.15c2.56,0.04,5.11,0.06,7.67-0.02c0.59-0.02,1.18-0.06,1.76-0.19c0.84-0.2,1.57-0.59,2.13-1.27
				c0.49-0.58,0.74-1.26,0.87-2c0.12-0.66,0.14-1.32,0.15-1.98c0.04-2.54,0.06-5.08-0.02-7.63c-0.02-0.6-0.06-1.19-0.2-1.78
				c-0.21-0.9-0.65-1.67-1.39-2.24c-0.55-0.43-1.19-0.64-1.87-0.77c-0.66-0.12-1.32-0.14-1.98-0.15c-2.55-0.04-5.09-0.06-7.64,0.02
				c-0.59,0.02-1.19,0.06-1.77,0.19c-0.91,0.21-1.68,0.65-2.25,1.41c-0.45,0.59-0.69,1.27-0.77,2c-0.08,0.65-0.12,1.31-0.13,1.97
				C17.53,21.48,17.55,22.62,17.55,23.76z"/>
			<path id="XMLID_51_" class="st10" d="M26.57,29.43c-3.12,0-5.67-2.54-5.66-5.67c0-3.12,2.55-5.67,5.67-5.66
				c3.13,0.01,5.66,2.55,5.66,5.67C32.22,26.89,29.69,29.43,26.57,29.43z M26.57,20.09c-2.03,0-3.67,1.64-3.68,3.67
				c0,2.03,1.64,3.68,3.67,3.68c2.03,0,3.68-1.65,3.68-3.68C30.24,21.74,28.59,20.09,26.57,20.09z"/>
			<path id="XMLID_50_" class="st10" d="M32.45,16.56c0.73,0,1.32,0.59,1.32,1.32c0,0.73-0.59,1.32-1.32,1.32
				c-0.73,0-1.33-0.59-1.33-1.32C31.13,17.15,31.72,16.56,32.45,16.56z"/>
		</g>
	</g>
</g>
<g id="Layer_4">
	<g id="XMLID_40_">
		<circle id="XMLID_17_" class="st7" cx="23.19" cy="26.81" r="22.5"/>
		<linearGradient id="XMLID_14_" gradientUnits="userSpaceOnUse" x1="14.0785" y1="37.7614" x2="38.6597" y2="9.0102">
			<stop  offset="0" style="stop-color:#751815"/>
			<stop  offset="0.5155" style="stop-color:#BA3A37"/>
			<stop  offset="1" style="stop-color:#F37471"/>
		</linearGradient>
		<circle id="XMLID_16_" class="st13" cx="26.27" cy="23.5" r="22.5"/>
		<circle id="XMLID_12_" class="st14" cx="26.27" cy="23.5" r="19.63"/>
		<path id="XMLID_36_" class="st10" d="M24.86,27.53c-0.07,0.29-0.14,0.54-0.2,0.79c-0.28,1.07-0.52,2.14-0.84,3.19
			c-0.36,1.21-1,2.29-1.72,3.33c-0.2,0.3-0.42,0.58-0.64,0.87c-0.07,0.09-0.15,0.17-0.28,0.13c-0.13-0.04-0.14-0.15-0.15-0.25
			c-0.06-0.62-0.14-1.24-0.16-1.87c-0.03-0.61-0.04-1.22,0.01-1.83c0.06-0.64,0.18-1.27,0.32-1.89c0.42-1.86,0.87-3.71,1.31-5.56
			c0.1-0.44,0.21-0.88,0.31-1.33c0.02-0.11,0.01-0.24-0.03-0.35c-0.43-1.2-0.52-2.4-0.09-3.62c0.28-0.81,0.76-1.47,1.57-1.81
			c0.71-0.3,1.41-0.26,2.04,0.24c0.38,0.31,0.55,0.74,0.63,1.21c0.11,0.72-0.05,1.41-0.24,2.1c-0.28,1.01-0.59,2.01-0.88,3.02
			c-0.14,0.47-0.19,0.94-0.03,1.42c0.29,0.84,0.9,1.3,1.75,1.44c0.91,0.15,1.71-0.16,2.41-0.74c0.77-0.64,1.26-1.48,1.62-2.4
			c0.4-1.01,0.62-2.06,0.68-3.14c0.03-0.51,0.06-1.03,0.02-1.55c-0.08-1.22-0.52-2.31-1.39-3.19c-0.62-0.63-1.38-1.04-2.23-1.29
			c-0.68-0.2-1.37-0.3-2.07-0.29c-1.75,0.01-3.35,0.5-4.68,1.69c-1.09,0.98-1.76,2.2-2.02,3.64c-0.09,0.47-0.12,0.96-0.12,1.45
			c0.01,0.94,0.27,1.8,0.9,2.53c0.22,0.26,0.3,0.52,0.19,0.85c-0.11,0.33-0.17,0.67-0.26,1c-0.12,0.42-0.38,0.55-0.79,0.37
			c-1.08-0.47-1.78-1.3-2.23-2.36c-0.36-0.87-0.51-1.78-0.53-2.72c-0.03-1.31,0.27-2.54,0.85-3.7c0.86-1.73,2.18-3.03,3.89-3.93
			c1.07-0.56,2.21-0.9,3.4-1.06c0.79-0.11,1.59-0.15,2.39-0.1c2.06,0.15,3.92,0.82,5.49,2.21c1.22,1.08,2.03,2.42,2.42,4.01
			c0.2,0.8,0.23,1.61,0.18,2.42c-0.06,1.13-0.25,2.25-0.62,3.33c-0.45,1.3-1.11,2.48-2.09,3.45c-0.97,0.97-2.13,1.6-3.49,1.85
			c-1.06,0.19-2.1,0.17-3.09-0.29c-0.55-0.26-1.03-0.61-1.4-1.1C24.96,27.65,24.92,27.61,24.86,27.53z"/>
	</g>
</g>
</svg>
